<?xml version="1.0"?>
<svg xmlns="http://www.w3.org/2000/svg"
	 xmlns:ns="http://www.w3.org/2000/svg" 
	 xmlns:xlink="http://www.w3.org/1999/xlink" 
	 width="200" height="200" viewBox="0 0 200 200" >
	 
<defs>
	<mask id="cross">
		<circle cx="25" cy="25" r="25" fill="white" />
		<rect width="4" height="30" x="23" y="10" fill="black" />
		<rect width="30" height="4" x="10" y="23" fill="black" />
	</mask>
	
	<mask id="dot">
		<rect width="50" height="50" x="-5" y="-5" fill="blue" />
		<circle cx="5" cy="5" r="5" fill="white" />
		<circle cx="15" cy="5" r="5" fill="black" />
		<circle cx="25" cy="5" r="5" fill="red" />
		<circle cx="35" cy="5" r="5" fill="blue" />
		<circle cx="5" cy="15" r="5" fill="green" />
		<circle cx="15" cy="15" r="5" fill="pink" />
		<circle cx="25" cy="15" r="5" fill="orange" />
		<circle cx="35" cy="15" r="5" fill="yellow" />
		<circle cx="5" cy="25" r="5" fill="orange" />
		<circle cx="15" cy="25" r="5" fill="#ff00ff" />
		<circle cx="25" cy="25" r="5" fill="#808080" />
		<circle cx="35" cy="25" r="5" fill="#ffff00" />
		<circle cx="5" cy="35" r="5" fill="#00ffff" />
		<circle cx="15" cy="35" r="5" fill="#ff5555" />
		<circle cx="25" cy="35" r="5" fill="#55ff55" />
		<circle cx="35" cy="35" r="5" fill="#ff55ff" />
	</mask>
</defs>

<g transform="translate(60, 60)">
<rect width="60" height="60" x="-5" y="-5" fill="magenta" />
<rect width="100" height="100" x="0" y="0" fill="yellow" mask="url(#cross)"/>
</g>

<g transform="translate(5, 60)">
<rect width="50" height="50" x="-5" y="-5" fill="yellow" />
<rect width="50" height="50" x="-5" y="-5" fill="blue" mask="url(#dot)"/>
</g>




</svg>