<?xml version="1.0" encoding="UTF-8"?>
<!--Generator: Apple Native CoreSVG 175.5-->
<!DOCTYPE svg
PUBLIC "-//W3C//DTD SVG 1.1//EN"
       "http://www.w3.org/Graphics/SVG/1.1/DTD/svg11.dtd">
<svg version="1.1" xmlns="http://www.w3.org/2000/svg" xmlns:xlink="http://www.w3.org/1999/xlink" width="3300" height="2200">  <g id="Regular-S" transform="matrix(1 0 0 1 1403.58 696)">
   <path class="monochrome-0 multicolor-0:systemIndigoColor hierarchical-0:secondary SFSymbolsPreview5856D6" d="M46.2402 4.15039C67.7734 4.15039 85.6934-13.7207 85.6934-35.2539C85.6934-56.7871 67.7246-74.6582 46.1914-74.6582C24.707-74.6582 6.83594-56.7871 6.83594-35.2539C6.83594-13.7207 24.7559 4.15039 46.2402 4.15039ZM46.2402-3.27148C28.5156-3.27148 14.3555-17.4805 14.3555-35.2539C14.3555-53.0273 28.4668-67.2363 46.1914-67.2363C63.9648-67.2363 78.2227-53.0273 78.2227-35.2539C78.2227-17.4805 64.0137-3.27148 46.2402-3.27148Z"/>
   <path class="monochrome-1 multicolor-1:systemIndigoColor hierarchical-1:primary SFSymbolsPreview5856D6" d="M31.0059-17.8711L62.207-17.8711C65.5273-17.8711 67.5293-19.873 67.5293-23.7305L67.5293-39.4043L25-39.4043L25-23.7305C25-19.873 27.0508-17.8711 31.0059-17.8711ZM25-42.7734L67.5293-42.7734L67.5293-43.9941C67.5293-47.9004 65.4785-49.8535 61.5234-49.8535L43.75-49.8535C42.5781-49.8535 41.8945-50.2441 40.9668-50.9277L39.7949-51.8555C38.4766-52.832 37.5488-53.1738 35.791-53.1738L30.2734-53.1738C27.002-53.1738 25-51.2207 25-47.3633Z"/>
  </g>
</svg>
