<?xml version="1.0"?>
<svg xmlns="http://www.w3.org/2000/svg" xmlns:ns="http://www.w3.org/2000/svg" width="1000" height="1000" viewBox="0 0 1000 1000" >
	  	
	<g fill="none">

    <path d="M100,300
    		 q150,-100 300,0"
			 stroke="black" stroke-width="15px" />

    <path d="M100,300
    		 Q250, 200, 400, 300"
    		 stroke="yellow" stroke-width="10px"/>
			 
    <path d="M100,300
    		 C200, 233.34, 300, 233.34 400, 300"
    		 stroke="green" stroke-width="5px"/>
			 
    <path d="M100,300
    		 c100,-66.66, 200,-66.66 300,0"
    		 stroke="white" stroke-width="2px" />
 
  	</g>
	
	<g fill="none">

    <path d="M0,50
    		 Q50,0 100,50 150,100, 200, 50 T300,50 400 50 500 50"
			 stroke="black" stroke-width="15px" />
			 
     <path d="M0,50
     		 q50,-50 100,0 q50,50 100,0 t100,0 100 0 100 0"
 			 stroke="yellow" stroke-width="10px" />
	
    <path d="M0,50
    		 C33.34,16.667 66.666,16.667 100,50
			 c 33.34,33.34, 66.666,33.34 100,0
			 c 33.34,-33.34, 66.666,-33.34 100,0
			 s 66.666, 33.34 100,0
			 s 66.666, -33.34 100,0"
			 stroke="green" stroke-width="5px" />
  	</g>
	
	<g fill="none">

    <path d="M0,150
    		 qt100,0, 100,0 100,0"
			 stroke="black" stroke-width="15px" />
			 
	</g>
			 
	<!--	 
	 http://stackoverflow.com/questions/3162645/convert-a-quadratic-bezier-to-a-cubic
	 
	 Any quadratic spline can be expressed as a cubic (where the cubic term is zero). The end points of the cubic will be the same as the quadratic's.

	 CP0 = QP0
	 CP3 = QP2

	 The two control points for the cubic are:

	 CP1 = QP0 + 2/3 *(QP1-QP0)
	 CP2 = QP2 + 2/3 *(QP1-QP2)

	 ...There is a slight error introduced due to rounding, but it is unlikely to be noticeable.
	 -->	  
</svg>


