<svg id="Capa_1" enable-background="new 0 0 510 510" height="512" viewBox="0 0 510 510" width="512" xmlns="http://www.w3.org/2000/svg" xmlns:xlink="http://www.w3.org/1999/xlink">
	<defs>
    <linearGradient id="lg1">
        <stop offset="0" stop-color="#a2e62e" />
        <stop offset=".7542" stop-color="#09a76d" />
        <stop offset="1" stop-color="#017b4e" />
    </linearGradient>
	</defs>
    <linearGradient id="SVGID_1_" gradientUnits="userSpaceOnUse" x1="316.598" x2="490.768" xlink:href="#lg1" y1="84.818" y2="84.818" />
    <linearGradient id="SVGID_2_" gradientUnits="userSpaceOnUse" x1="189.125" x2="519.599" xlink:href="#lg1" y1="84.818" y2="84.818" />
    <linearGradient id="lg2">
        <stop offset="0" stop-color="#a79ba7" />
        <stop offset=".7487" stop-color="#7a6d79" />
        <stop offset="1" stop-color="#685e68" />
    </linearGradient>
    <linearGradient id="SVGID_3_" gradientUnits="userSpaceOnUse" x1="246.314" x2="335.512" xlink:href="#lg2" y1="103.837" y2="103.837" />
    <linearGradient id="lg3">
        <stop offset="0" stop-color="#fe99a0" />
        <stop offset=".593" stop-color="#fe646f" />
        <stop offset="1" stop-color="#e41f2d" />
    </linearGradient>
    <linearGradient id="SVGID_4_" gradientUnits="userSpaceOnUse" x1="149.353" x2="490.041" xlink:href="#lg3" y1="329.056" y2="329.056" />
    <linearGradient id="SVGID_5_" gradientUnits="userSpaceOnUse" x1="67" x2="435.067" xlink:href="#lg3" y1="392.046" y2="392.046" />
    <linearGradient id="SVGID_6_" gradientUnits="userSpaceOnUse" x1="356.106" x2="501.483" y1="329.055" y2="329.055">
        <stop offset="0" stop-color="#fe646f" />
        <stop offset=".7043" stop-color="#e41f2d" />
        <stop offset="1" stop-color="#c41926" />
    </linearGradient>
    <linearGradient id="SVGID_7_" gradientUnits="userSpaceOnUse" x1="8" x2="260.642" y1="380.08" y2="380.08">
        <stop offset="0" stop-color="#fff9df" />
        <stop offset=".593" stop-color="#ffe177" />
        <stop offset="1" stop-color="#feb137" />
    </linearGradient>
    <linearGradient id="SVGID_8_" gradientUnits="userSpaceOnUse" x1="62.712" x2="264.266" y1="380.08" y2="380.08">
        <stop offset="0" stop-color="#ffe177" />
        <stop offset="1" stop-color="#feb137" />
    </linearGradient>
    <linearGradient id="SVGID_9_" gradientUnits="userSpaceOnUse" x1="112.416" x2="164.335" xlink:href="#lg2" y1="341.873" y2="341.873" />
    <g>
        <g>
            <g>
                <g>
                    <path d="m358.161 40.149c-26.556 26.556-39.604 62.779-40.147 102.885-.2 14.796 11.803 26.799 26.599 26.599 40.106-.543 76.329-13.591 102.885-40.147s39.604-62.779 40.147-102.885c.2-14.796-11.803-26.799-26.599-26.599-40.106.543-76.329 13.591-102.885 40.147z" fill="url(#SVGID_1_)" />
                </g>
                <path d="m461.046.002c-9.671.131-19.114.997-28.253 2.596 8.885 4.287 14.974 13.43 14.831 24.003-.543 40.106-13.591 76.329-40.147 102.885-20.152 20.152-45.874 32.518-74.632 37.551 3.55 1.713 7.544 2.653 11.767 2.596 40.106-.543 76.329-13.591 102.885-40.147s39.604-62.779 40.147-102.885c.201-14.796-11.802-26.799-26.598-26.599z" fill="url(#SVGID_2_)" />
            </g>
            <path d="m318.012 194.555c-9.665 0-17.5-7.835-17.5-17.5v-20.601c0-41.521-16.169-80.557-45.529-109.917l-3.544-3.545c-6.834-6.834-6.833-17.915.001-24.748 6.834-6.836 17.915-6.833 24.749.001l3.543 3.544c17.773 17.774 31.664 38.562 41.283 61.784 9.62 23.224 14.497 47.744 14.497 72.881v20.601c0 9.665-7.835 17.5-17.5 17.5z" fill="url(#SVGID_3_)" />
            <path d="m508.651 259.44-22.499 133.878c-8.213 45.032-35.647 82.449-72.907 104.391-22.268 13.114-49.014 15.384-73.917 8.477-6.43-1.783-13.388-2.759-20.649-2.759-7.26 0-14.219.975-20.649 2.759-24.903 6.907-51.649 4.637-73.917-8.477-37.26-21.942-64.693-59.36-72.907-104.391l-22.497-133.878c-7.134-42.459 14.499-85.188 53.747-102.918 11.98-5.403 25.23-8.403 39.037-8.403 5.134 0 10.346.404 15.615 1.269 26.999 4.403 54.286 6.596 81.573 6.596s54.574-2.192 81.573-6.596c19.403-3.173 38.21-.288 54.651 7.134 39.247 17.73 60.88 60.458 53.746 102.918z" fill="url(#SVGID_4_)" />
            <path d="m297.965 444.898-165.983-165.983 19.226 114.402c8.213 45.032 35.647 82.449 72.907 104.392 5.239 3.085 10.727 5.562 16.379 7.469 16.892-4.152 33.362-11.081 48.804-21.191 14.634-9.581 18.886-28.869 8.667-39.089z" fill="url(#SVGID_5_)" />
            <path d="m454.904 156.522c-16.442-7.423-35.248-10.307-54.651-7.134-1.636.267-3.277.5-4.915.75 6.789 1.427 13.337 3.58 19.546 6.384 39.248 17.73 60.881 60.459 53.747 102.918l-22.499 133.878c-8.213 45.032-35.647 82.449-72.907 104.392-8.32 4.899-17.264 8.284-26.504 10.243 22.726 4.586 46.445 1.582 66.524-10.243 37.26-21.942 64.693-59.36 72.907-104.392l22.499-133.878c7.134-42.46-14.499-85.188-53.747-102.918z" fill="url(#SVGID_6_)" />
        </g>
        <g>
            <path d="m272.954 444.898c10.22 10.22 5.968 29.507-8.668 39.089-73.906 48.384-171.309 24.153-226.15-30.688-55.664-55.664-48.445-123.829 8.972-192.029 10.323-12.261 27.43-14.787 36.715-5.502z" fill="url(#SVGID_7_)" />
            <path d="m272.954 444.898-189.13-189.13c-6.86-6.86-17.986-7.266-27.494-2.071.875.612 1.708 1.296 2.483 2.071l37.983 37.983c-6.473 19.789 2.312 47.435 23.756 68.878 14.891 14.891 32.773 23.678 48.939 25.49 15.457 1.732 29.971 8.297 40.969 19.295l37.484 37.484c10.22 10.22 5.968 29.507-8.668 39.089-23.886 15.638-50.227 23.681-76.792 25.566 34.799 2.426 70.42-5.02 101.803-25.566 14.634-9.581 18.886-28.869 8.667-39.089z" fill="url(#SVGID_8_)" />
            <path d="m126.33 347.857c-5.229-5.229-5.229-13.706 0-18.935s13.707-5.229 18.935 0c5.229 5.229 14.578 23.055 9.349 28.284s-23.055-4.12-28.284-9.349z" fill="url(#SVGID_9_)" />
        </g>
    </g>
</svg>