<?xml version="1.0"?>
<svg xmlns="http://www.w3.org/2000/svg" xmlns:ns="http://www.w3.org/2000/svg" xmlns:xlink="http://www.w3.org/1999/xlink" width="480" height="352" >
	 <defs>
	 	<pattern id="checkerboard" x="0" y="0" width="64" height="64" patternUnits="userSpaceOnUse">
			<rect x="0" y="0" width="32" height="32" fill="#404040" />
			<rect x="32" y="0" width="32" height="32" fill="#292929" />
			<rect x="0" y="32" width="32" height="32" fill="#292929" />
			<rect x="32" y="32" width="32" height="32" fill="#404040" />
		</pattern>
	
		<g id="composite">
		  <use xlink:href="#frame" fill="white" />
		  <use xlink:href="#row" transform="translate(0,0)" fill="black" opacity="0.125" />
		  <use xlink:href="#row" transform="translate(0,32)" fill="black" opacity="0.25" />
		  <use xlink:href="#row" transform="translate(0,64)" fill="black" opacity="0.375" />
		  <use xlink:href="#row" transform="translate(0,96)" fill="black" opacity="0.5" />
		  <use xlink:href="#row" transform="translate(0,128)" fill="black" opacity="0.625" />
		  <use xlink:href="#row" transform="translate(0,160)" fill="black" opacity="0.75" />
		  <use xlink:href="#row" transform="translate(0,192)" fill="black" opacity="0.875" />
		  <use xlink:href="#row" transform="translate(0,224)" fill="black" opacity="1" />
		  <use xlink:href="#col" transform="translate(0,0)" fill="black" opacity="0.125" />
		  <use xlink:href="#col" transform="translate(32,0)" fill="black" opacity="0.25" />
		  <use xlink:href="#col" transform="translate(64,0)" fill="black" opacity="0.375" />
		  <use xlink:href="#col" transform="translate(96,0)" fill="black" opacity="0.5" />
		  <use xlink:href="#col" transform="translate(128,0)" fill="black" opacity="0.625" />
		  <use xlink:href="#col" transform="translate(160,0)" fill="black" opacity="0.75" />
		  <use xlink:href="#col" transform="translate(192,0)" fill="black" opacity="0.875" />
		  <use xlink:href="#col" transform="translate(224,0)" fill="black" opacity="1" />
		</g>

		<mask id="fade">
		 <use xlink:href="#composite" />
		</mask>
		
		<rect id="frame" x="112" y="48" width="256" height="256" />
		
		<rect id="row" x="112" y="48" width="256" height="32" />
		<rect id="col" x="112" y="48" width="32" height="256" />
	 </defs>
	 
	 <rect x="0" y="0" width="480" height="352" fill="url(#checkerboard)" />
	 <use xlink:href="#frame" fill="red" />
	 <use xlink:href="#frame" fill="blue" mask="url(#fade)" />

	 <usae xlink:href="#composite" />

</svg>