<?xml version="1.0"?>
<svg xmlns="http://www.w3.org/2000/svg" xmlns:ns="http://www.w3.org/2000/svg" width="1000" height="1000" viewBox="0 0 1000 1000" >
	  		
			
	<g fill="none">
    		<path d="M0,50
  				 q50,-50 200,0 t100,0"
			 	 stroke="black" stroke-width="15" />
			 
		     <path d="M0,50
					 c 33.33 ,-33.34, 100,-33.34 200,0
		 			 c 100,33.34, 133.33,33.34 100,0"
		 			
		 			 stroke="yellowgreen" stroke-width="5" /> 
  	</g>
	
	<g fill="none" transform="translate(400, 0)">
    <path d="M0,50
    		 t100,0 q50,-50 100,0 t100,0"
			 stroke="black" stroke-width="15" />
			 
		     <path d="M0,50
		     		 l100,0
					 c 33.33 ,-33.34, 66.66,-33.34 100,0
		 			 c 33.34,33.34, 66.666,33.34 100,0"
		 			
		 			 stroke="pink" stroke-width="5" /> 
  	</g>
	
	<g fill="none" transform="translate(0, 100)">
    		<path d="M0,50
  				 q150,-50 200,0 t100,0"
			 	 stroke="black" stroke-width="15" />
			 
		     <path d="M0,50
					 c 100 ,-33.34, 166.66,-33.34 200,0
		 			 c 33.33,33.34, 66.66,33.34 100,0"
		 			 stroke="magenta" stroke-width="5" /> 
  	</g>
	
	<g fill="none" transform="translate(400, 100)">
    <path d="M0,50
    		 Q100,0 300, 50
			 Q500,0 600, 50"
			 stroke="black" stroke-width="15" />
			 
		     <path d="M0,50
					 c 66.66,-33.34, 166.66,-33.34 300,0
		 			 c 133.33,-33.34, 233.33,-33.34 300,0"
		 			
		 			 stroke="gainsboro" stroke-width="5" /> 
  	</g>
	
	<g fill="none" transform="translate(0, 200)">

    <path d="M0,50
    		 Q50,0 100,50T200,50 400,50 600,50 800,50 900,50"
			 stroke="black" stroke-width="15" />
	
    <path d="M0,50
    		 C33.34,16.667 66.666,16.667 100,50
			 c 33.34,33.34, 66.666,33.34 100,0
			 c 33.33 ,-33.34, 100,-33.34 200,0
			 c 100,33.34, 166.66,33.34 200,0
			 c 33.33 ,-33.34, 100,-33.34 200,0
			 c 100 ,33.34, 133.3,33.34 100,0"
			 stroke="salmon" stroke-width="5" /> 
  	</g>
	
	<g fill="none" transform="translate(0, 300)">

    <path d="M0,50
    		 Q50,0 100,50T200,50 500,50 800,50 900,50"
			 stroke="black" stroke-width="15" />
	
    <path d="M0,50
    		 C33.34,16.667 66.666,16.667 100,50
			 c 33.34,33.34, 66.666,33.34 100,0
			 c 33.33 ,-33.34, 133.33,-33.34 300,0
			 c 166.66 ,33.34, 266.66,33.34 300,0
			 c 33.33 ,-33.34, 66.66, -33.34 100,0"
			 stroke="cornflowerblue" stroke-width="5" /> 
  	</g>
	
	<g fill="none" transform="translate(0, 400)">

    <path d="M0,50
    		 Q50,0 100,50T200,50 600,50, 700,50"
			 stroke="black" stroke-width="15" />
	
    <path d="M0,50
    		 C33.34,16.667 66.666,16.667 100,50
			 c 33.34,33.34, 66.666,33.34 100,0
			 c 33.33 ,-33.34, 166.66,-33.34 400,0
			 c 233.33 ,33.34, 266.66,33.34 100,0"
			 stroke="yellow" stroke-width="5" /> 
  	</g>
	
	
	

			 
  
</svg>


