<?xml version="1.0"?>
<svg xmlns="http://www.w3.org/2000/svg"
	 xmlns:ns="http://www.w3.org/2000/svg" 
	 xmlns:xlink="http://www.w3.org/1999/xlink" 
	 width="500" height="700" viewBox="0 0 500 700" >
	<ellipse cx="250" cy="250" rx="200" ry="120" stroke="green" />
	<ns:g fill="yellow">
		<circle cx="250" cy="250" r="100" stroke="blue" stroke-width="2"/>
	</ns:g>
	
	<defs>
	  <polygon id="star" points="100,10 40,198 190,78, 10,78, 160,198" fill-rule="nonzero" />
	</defs>
	
    <linearGradient id="MyGradient">
          <stop offset="5%"  stop-color="purple"/>
          <stop offset="95%" stop-color="darkblue"/>
    </linearGradient>
	
	<circle cx="250" cy="250" r="50" fill="darkblue" stroke="purple" style="stroke-width:5;fillno: url(#MyGradient)"/>
	
	<g fill-opacity="0" stroke="red" stroke-width="4">
		<rect x="70" y="420" width="75" height="75" />	
		<rect x="215" y="445" width="75" height="50" fill="blue" fill-opacity="50%" />	
		<rect x="355" y="420" width="75" height="75" />	
	</g>
	
	<line x1="0" y1="0" x2="250" y2="250" stroke="fuchsia" stroke-width="2" />
	
	<path d="M0,0 l20,30 l20,-30 l20,30 l20,-30 l20,30 l20,-30 l20,30 l20,-30 l20,30 l20,-30 l10,15 L500,15" fill-opacity="0" stroke="red" stroke-width="2"/>
	
	
	<path d="M 0,90 q 50 50 100 0 q 50 -50 100 0 t 100 0 t 100 0 t 100 0" stroke="blue"
	  stroke-width="5" fill="none" />
	  
	  <path d="M230 520
	            A 45 45, 0, 1, 0, 275 565
	            L 275 520 Z" fill="red"/>


 <polyline points="100,590 120,550"
  style="fill:none;stroke:black;stroke-width:3" stroke="red" stroke-width="5" />
  
 <polyline points="100,590 120,550 110,600 155,610 125,590 175,600"
  style="fill:none;stroke:green;stroke-width:2" stroke="black" stroke-width="2"/>
  
   <polygon points="400,500 470,590 370,620" fill="lime" stroke="purple" stroke-width="1" />
   
   
	<clipPath id="cp">
		<rect x="440" y="55" width="20" height="20" />	
	</clipPath>
	
	<g>
	<clipPath id="cp2">
		<circle cx="250" cy="65" r="10" fill="none"/>
	</clipPath>
	</g>
   
	<circle cx="450" cy="75" r="20" fill="purple" clip-path="url(#cp)"/>
	
	<switch>
		<circle cx="105" cy="100" r="2" fill="#FF00FF"/>
	</switch>
	
	<rect x="230" y="55" width="40" height="40" fill="purple" clip-path="url(#cp2)" />	
	
	<text x="200" y="650" font-family="GillSans-Light" font-size="20">
		 Madeleine Whitty 😀
	</text>
	
	<line x1="200" y1="650" x2="400" y2="650" stroke="fuchsia" stroke-width="2" />
	
	<use xlink:href="#star" x="0" y="0" fill="gold" stroke="orange" transform="translate(100, 300)  scale(0.5) rotate(45, 80, 80)" />
  
</svg>