<?xml version="1.0" encoding="UTF-8"?>
<svg xmlns="http://www.w3.org/2000/svg" xmlns:ns="http://www.w3.org/2000/svg" width="1000" height="500" viewBox="0 0 1000 500">
   <g fill="none">
      <path d="M50.0,50.0 C83.33,16.66 150.0,16.66 250.0,50.0 C350.0,83.34 383.33002,83.34 350.0,50.0" stroke="black" stroke-width="15" />
      <path d="M50.0,50.0 C83.33,16.66 150.0,16.66 250.0,50.0 C350.0,83.34 383.33002,83.34 350.0,50.0" stroke="springgreen" stroke-width="5" />
	
      <g transform="rotate(10) scale(-1, 1) translate(-400, 20)">
         <path d="M50.0,50.0 C83.33,16.66 150.0,16.66 250.0,50.0 C350.0,83.34 383.33002,83.34 350.0,50.0" stroke="black" stroke-width="15" />
      </g>
      <path d="M332.5273,129.7134 C305.4931,91.09222 239.836,79.5151 135.5658,94.9838 C31.2956,110.4524 -1.5281,104.6647 37.08502,77.619" stroke="deepskyblue" stroke-width="5" />

      <g transform="rotate(-10) translate(0, 80)">
         <path d="M50.0,150.0 C150.0,116.66 216.66,116.66 250.0,150.0 C283.33002,183.34 316.66,183.34 350.0,150.0" stroke="black" stroke-width="15" />
      </g>
      <path d="M89.1795,217.8234 C181.8708,167.6251 247.5181,156.04968 286.141,183.09375 C324.7541,210.1395 357.5777,204.3518 384.6218,165.7289" stroke="yellow" stroke-width="5" />

      <g transform="translate(500, 30) rotate(70)">
         <path d="M50.0,50.0 C150.0,16.66 216.66,16.66 250.0,50.0 C283.33002,83.34 316.66,83.34 350.0,50.0" stroke="black" stroke-width="15" />
      </g>
      <path d="M470.1164,94.08564 C535.6478,176.6519 558.4468,239.2919 538.5204,282.02417 C518.5906,324.7471 529.9902,356.06702 572.7225,375.9934" stroke="magenta" stroke-width="5" />

      <g transform="translate(70, 170) translate(20, 50) rotate(10)">
         <path d="M50.0,50.0 C83.33,16.66 150.0,16.66 250.0,50.0 C350.0,83.34 383.33002,83.34 350.0,50.0" stroke="black" stroke-width="15" />
      </g>
      <path d="M130.55798,277.9228 C169.17105,250.877 234.82819,262.45413 327.51953,312.65244 C420.21088,362.85074 453.03455,368.63843 426.0003,330.01724" stroke="salmon" stroke-width="5" />

   </g>
</svg>