<?xml version="1.0"?>
<svg xmlns="http://www.w3.org/2000/svg" xmlns:ns="http://www.w3.org/2000/svg" width="1000" height="500" viewBox="0 0 1000 500" >
	  		
			
	<g fill="none">

   	 	<path d="M50.0,50.0 C83.33,16.66 150.0,16.66 250.0,50.0 C350.0,83.34 383.33002,83.34 350.0,50.0"
		      stroke="black" stroke-width="15" />
	
   	 	<path d="M50.0,50.0 C83.33,16.66 150.0,16.66 250.0,50.0 C350.0,83.34 383.33002,83.34 350.0,50.0"
		      stroke="yellowgreen" stroke-width="5" /> 

		 <g transform="translate(0, 100)">
   		  <path d="M50.0,50.0 C150.0,16.66 216.66,16.66 250.0,50.0 C283.33002,83.34 316.66,83.34 350.0,50.0"
			 stroke="black" stroke-width="15" />		 
		 </g>
		 
	     <path d="M50.0,150.0 C150.0,116.66 216.66,116.66 250.0,150.0 C283.33002,183.34 316.66,183.34 350.0,150.0"
				 stroke="magenta" stroke-width="5" />
				 
		 		 <g transform="rotate(-10)">
				 
	     <path d="M50.0,150.0 C150.0,116.66 216.66,116.66 250.0,150.0 C283.33002,183.34 316.66,183.34 350.0,150.0"
 			 stroke="black" stroke-width="15" />
			 </g>
		
		
        <path d="M75.28761,139.03876 C167.97896,88.84045 233.62624,77.26506 272.24915,104.30912 C310.86224,131.3549 343.68585,125.567215 370.72992,86.944305"
   			 stroke="magenta" stroke-width="5" />
			 


		 <g transform="translate(70, 170) translate(20, 50) rotate(10)">
    	 	<path d="M50.0,50.0 C83.33,16.66 150.0,16.66 250.0,50.0 C350.0,83.34 383.33002,83.34 350.0,50.0"
 		      stroke="black" stroke-width="15" />
		  </g>
		  

 	     <path d="M130.55798,277.9228 C169.17105,250.877 234.82819,262.45413 327.51953,312.65244 C420.21088,362.85074 453.03455,368.63843 426.0003,330.01724"
 		 	stroke="salmon" stroke-width="5" />
			

 <g transform="rotate(10)">
 	<path d="M50.0,50.0 C83.33,16.66 150.0,16.66 250.0,50.0 C350.0,83.34 383.33002,83.34 350.0,50.0"
      stroke="black" stroke-width="15" />
  </g>
  
  
	     <path d="M40.55798,57.922794 C79.17106,30.876999 144.82819,42.45412 237.51953,92.65243 C330.21088,142.85074 363.03455,148.63843 336.0003,110.01724"
		 	stroke="pink" stroke-width="5" />
	

</g>

	
  
</svg>


