<svg xmlns="http://www.w3.org/2000/svg" xmlns:xlink="http://www.w3.org/1999/xlink" viewBox="0 0 66 66"><defs><style>.a,.b{fill:none;}.a{clip-rule:evenodd;}.c{fill:#009ddc;}.d{clip-path:url(#a);}.e{clip-path:url(#b);}.f{fill:#fff;}</style><clipPath id="a"><path class="a" d="M38.78,31.6v1.74h4.59v1.94H38.78v1.94h5.14l2.39-2.9L44.1,31.6Zm14.13,7.74H50.16L47.77,36,45,39.34H36.76V29.66H45.2l2.57,3.1,2.75-3.1H53.1l-4,4.84Zm-18.17,0h-2V31.79L29.6,39.34H27.77l-3.12-7.55v7.55H20.43l-.73-2.13h-4.4l-.73,2.13H12.17L16,29.66h3.12l3.49,9.1v-9.1h3.49l2.75,6.58,2.57-6.58h3.49v9.68ZM56.95,27.73H49.42l-1.84,2.13-1.65-2.13H30L28.5,31.21,27,27.73H20.61v1.55l-.73-1.55H14.37L9.05,41.27h6.42l.73-2.13H18l.73,2.13h7.16V39.73l.55,1.55h3.67l.55-1.74v1.74H45.39l1.84-2.13,1.65,2.13H56.4L51.63,34.5ZM16,35.08H19l-1.47-3.87Z"/></clipPath><clipPath id="b"><rect class="b" x="-5.76" y="-4.21" width="77.42" height="77.42"/></clipPath></defs><circle class="c" cx="33" cy="33" r="33"/><g class="d"><g class="e"><rect class="f" x="1.31" y="19.98" width="63.38" height="29.03"/></g></g></svg>