<svg display="block" height="1024" viewBox="0 0 2048 2048" width="1024" xmlns="http://www.w3.org/2000/svg"><path d="m0 0h2048v1085.02 8.37 954.61h-2048z" fill="#fefefe"/><path d="m1462.29 1502.52 1.39.63c-.15.25-.26.51-.45.73-9.49 11.41-128.44 26.68-149.87 30.8l-2.04-2.87.42-2.03c11.6-10.34 86.94-17.31 105.93-20.13 14.89-2.22 29.65-5.52 44.62-7.13z"/><path d="m1494.66 1518.43c.32-.03.64-.08.97-.07 2.25.05 4.23.2 5.91 1.68-.16 1.16-.1 2.1-.84 3.07-1.97 2.61-6.83 4.55-9.95 5.34-10.91 2.79-23.26 3.04-34.48 5.05-25.57 4.58-51.01 10.71-76.84 13.61-2.9.03-5.14.32-7.62-1.47l.57-1.72c18.7-11.61 97.54-22.8 122.28-25.49z"/><path d="m1683.37 1339.39c6.97-.66 13.89-.53 20.88-.44-39.8 10.22-80.04 17.3-120.41 24.7l-103.1 19.64c-7.16 1.45-14.19 2.57-21.46 3.31 23.09-11.2 50.76-15.83 75.75-21.31 48.9-10.72 98.49-20.81 148.34-25.9z"/><path d="m1835.54 1335.45 1.31.44c-16.5 12.13-252.65 51.16-288.35 56.59l-1.14-.39c10.36-11.46 256.7-52.93 288.18-56.64z"/><path d="m339.435 367.503c2.114-4.756 4.419-9.333 7.105-13.794 12.735-21.152 34.448-37.592 58.545-43.383 14.339-3.446 29.541-2.697 42.248 5.491 22.962 14.795 29.355 44.823 34.284 69.743 32.37-10.013 65.296-15.641 99.076-9.231 18.732 3.555 36.656 12.571 47.558 28.701 13.499 19.974 12.417 43.261 8.204 65.949 25.135 5.649 51.952 11.427 68.86 32.69 16.794 21.121 19.905 56.311 16.933 82.105-2.15 18.653-8.204 25.939-22.565 37.459 3.494 10.619 4.987 21.254.263 31.86-4.419 9.919-12.867 15.837-22.76 19.539.004 7.695-.316 15.35-1.877 22.906-3.62 17.521-13.3 32.22-28.406 41.929-40.705 26.164-80.522 6.891-122.234-2.298-7.926 6.873-16.221 14.363-25.738 18.973-13.408 6.493-24.45 4.063-37.86-.321-7.637 17.956-14.714 36.695-19.096 55.724-11.965 51.958-10.356 115.506-8.363 168.629 5.273-6.242 10.8-11.619 18.404-14.992 11.813-5.242 22.958-2.81 34.529 1.389 4.475-2.988 8.834-5.402 14.046-6.87 9.181-2.585 15.701 1.307 23.558 5.641 3.902-4.712 8.169-9.061 13.781-11.699 6.964-3.274 14.921-4.029 22.127-1.02 9.499 3.967 13.725 11.941 17.271 20.983 6.117.549 12.398.426 17.462 4.306 12.017 9.206 12.11 4.967 23.103 9.45 4.269 1.741 8.468 4.845 12.374 7.314 2.88-.337 6.441-.959 9.31-.332 7.216 1.578 13.327 10.096 19.133 14.296 3.337 2.42 7.16 4.38 10.805 6.29l7.514-7.49c-1.295-5.82-.437-12.524 1.309-18.155 2.528-8.157 8.021-12.712 15.345-16.544 9.409.03 17.957 1.36 27.05 3.715 3.299-3.753 6.923-7.362 10.95-10.343 10.19-7.541 24.121-13.223 36.939-11.106 8.858 1.463 13.432 5.847 18.616 12.741 24.553-2.388 75.001-20.624 94.134-37.19-.057-1.082-.162-2.231-.017-3.311.126-.938.464-1.478 1.145-2.143 4.199-4.102 10.718-7.589 15.482-11.155 11.782-8.82 23.297-18.044 34.884-27.12-8.101-3.147-16.584-5.473-21.761-12.997-.616-3.804.349-5.276 1.704-8.822-2.362-6.239-16.773-10.067-22.572-14.118-8.609-6.013-14.346-13.273-20.169-21.905-2.265-.084-4.541-.193-6.791-.489-6.978-.919-12.919-5.357-16.919-11.031-6.83-9.689-8.05-23.152-5.962-34.538 2.576-14.047 9.841-24.739 21.559-32.601-3.53-13.799-4.167-26.717-4.169-40.851-7.884-4.697-13.446-9.698-17.065-18.405-10.867-26.141 5-70.685 15.762-95.237 15.704-35.824 42.863-63.493 79.581-77.506 54.384-20.756 122.786-14.316 175.196 9.314 45.93 20.711 81.71 52.825 99.47 100.792 16.9 45.641 13.65 93.826-6.65 137.782 2.09 2.182 4.22 4.404 6.03 6.839 6.61 8.941 10.31 21.856 8.11 32.873-1.09 5.46-3.68 10.63-8.5 13.682-6.76 4.286-12.61 2.79-19.84 1.103-.91 10.162-1.75 21.831-7.59 30.532-2.96 4.401-7.14 7.634-12.48 8.417-8.72 1.279-16.19-3.487-22.88-8.358-2.47 4.641-4.99 9.866-8.25 14.016-5.66 7.23-12.62 8.583-21.18 9.798 32.2 58.035 43.89 147.571 48.66 213.231 21.27.17 42.6-.99 63.89-1.03a10097.5 10097.5 0 0 0 154.57-.35c.79-15.15 6.72-12.39 1.85-29.99l.43-1.49c2.38-8.26 8.11-14.24 10.62-22.22 1.91-6.06-1.41-13.92 1.54-19.51 1.38-2.62 3.32-4.18 6.12-5.05 11.8-3.69 24.76 2.67 35.12 7.66 5.18-9.79 13.06-15.85 21.76-22.388 4.49-3.373 9.03-7.488 14.95-6.608 5.65.84 11.45.342 17.15.451 17.19.328 29.12 5.566 42.87 15.585.92-2.27 1.86-4.534 3.09-6.66 7.71-13.361 20.46-16.316 34.13-20.299 2.32-10.364 5.05-21.969 11.32-30.718 4.49-6.252 9.19-9.095 16.71-10.297 2.04-66.797-16.7-96.868-34.17-156.355-8.34 12.075-17.34 21.897-32.02 26.127-9.87 2.844-20.56 2.471-29.55-2.842-14.59-8.62-18.21-22.625-22.26-37.772-24.41 19.423-54.95 38.546-86.78 41.28-20.71 1.78-41.31-3.238-57.26-17.01-23.8-20.536-27.49-54.971-29.6-84.329-4.44.738-10.81 2.538-15.19 1.386-2.59-.682-4.2-2.586-5.27-4.93-4.98-10.934-2.16-27.895 1.59-38.876 9.71-28.392 33.03-48.214 59.28-61.03a143.735 143.735 0 0 1 -.12-4.073c-.28-18.265 1.64-34.744 14.99-48.534-1.55-12.343-2.15-25.563-1.51-37.974 1.69-33.102 14.68-69.396 39.96-91.853 11.8-10.486 27.79-18.61 43.96-17.366 17.99 1.384 26.67 12.788 37.44 25.323 4.31-17.608 12.68-37.23 26.85-49.187 5.23-4.407 11.83-7.685 18.84-6.75 8.29 1.108 13.12 6.361 17.88 12.598a261.513 261.513 0 0 1 5.87-10.658c14.94-25.33 38.84-44.153 67.52-51.222 13.99-3.448 27.64-2.283 40.05 5.534 27.32 17.212 36.53 53.099 42.81 82.577 26.42-7.944 54.78-12.025 82.32-9.683 25.76 2.19 55.62 9.622 72.67 30.722 17.98 22.268 12.7 52.977 10.13 79.149 28.09 4.283 56.75 11.858 74.71 35.621 18.88 24.987 19.04 60.54 14.6 90.233-2.82 18.86-9.4 28.931-24.71 40.185-.14 9.55-.52 18.521-3.31 27.724-4.22 13.904-12.14 23.027-24.73 29.861-.17 12.617-.99 24.352-5.24 36.363-5.75 16.27-17.7 28.3-33.26 35.439-38.26 17.559-88.93 1.187-125.92-12.866-7.87 10.866-17.52 19.829-30.43 24.29-14.4 4.977-26.46 2.673-39.64-3.919-10.95 33.166-17.75 64.786-20.74 99.699-.58 6.737-2.34 15.6.19 22.02.56.335 1.03 1.029 1.69 1.005 1.15-.041 8.18-9.949 15.5-10.216 8.93-.326 15.81 6.681 21.65 12.491 2.19-2.817 4.4-5.493 7.22-7.717 5.47-4.322 12.17-6.702 19.15-5.521 12.13 2.051 20.65 13.732 27.42 23.01a36.1294 36.1294 0 0 1 14.17-1.135c11.07 1.312 17.39 8.123 23.82 16.434 22.06-2.229 23.64 9.736 29.95 10.426 2.22.243 7.33-1.994 9.93-2.319 9.3-1.163 16.88 10.678 23 16.342 3.05 2.817 6.88 5.074 10.12 7.745 5.93-5.532 13.2-10.888 21.7-10.986 12.13-.139 18.18 10.167 25.75 17.683 1 .98 2.7 2.65 4.24 2.5 6.15-.63 10.12-5.012 20.7-4.691 14.15.429 22.8 7.611 32.08 17.251 3.39-2.22 6.43-3.72 10.52-4.08 9.71-.86 18.02 3.22 25.18 9.49 17.33 15.16 22.46 36.31 23.9 58.4a744.92 744.92 0 0 1 8-.39c8.21-.35 13.71-.9 20.08 4.96v8.37c-28.64 2.58-57.83 1.78-86.58 2.47-72.02 1.72-143.9 1.87-215.93 2.21l-473.16 4.01c-13.76.05-116.03-2.66-120.94.07-.66.37-1.29.87-1.67 1.51-2.24 3.78-5.26 23.01-10.18 32.32-13.14 24.87-35.77 37.09-55.35 55.75-20.84 19.85-34.61 42.12-35.19 71.33 16.75 13.35 36.9 22.78 53.27 36.42 5.16-6.14 10.47-12.02 16.31-17.54 26.77-25.33 60.81-42.16 98.29-40.97 36.04 1.14 65.02 17.9 89.2 43.74 14.27-3.42 28.88-5.44 43.32-7.99a4441.34 4441.34 0 0 0 58.38-11.05c61.04-11.83 146.4-33.29 207.21-30.64-25.11 6.43-51.81 9.1-77.39 13.56l-99.02 17.28c-43.16 7.12-86.79 13.78-129.49 23.31 3.3 6.61 7.94 12.99 11.88 19.26 32.21-6.23 66.51-11.32 99.22-13.68-31.1 10.66-63.84 13.96-95.91 20.53 2.8 6.74 5.26 13.51 7.09 20.58 10.46 40.3 6.3 104.89-4.29 144.91-4.67 17.61-11.98 35.63-21.21 51.35-19.98 34.01-50.72 58.74-89.16 68.66a143.519 143.519 0 0 1 -109.91-16.08 124.354 124.354 0 0 1 -57.52-75.91c-14.94.58-47.36 5.42-58.997-5.54-6.73-6.34-6.463-13.8-6.468-22.32-8.941-.9-20.284-2.55-26.49-9.76-2.952-3.42-3.851-7.86-3.346-12.27 1.921-16.82 41.673-45.24 54.831-56.3a10999.2 10999.2 0 0 1 -224.263-159.78c-6.873 15.79-10.581 33.16-19.991 47.69 4.442 15.72 4.615 31.63 4.92 47.83 14.733 6.75 27.762 17.11 38.538 29.13 33.94 37.87 43.249 93.63 40.373 142.89-3.656 62.6-25.884 142.43-74.332 185.08-33.905 29.85-85.929 44.79-130.612 41.55a148.88 148.88 0 0 1 -102.981-51.89c-37.819-43.87-48.613-106.98-44.435-163.46 4.437-59.99 29.477-119.75 75.762-159.18 33.429-28.48 76.207-44.27 120.419-40.66 5.43-18.39 14.106-30.02 29.449-41.31 11.101-32.76 19.868-66.65 32.065-98.96 10.186-26.97 23.592-52.69 33.84-79.76-42.994.39-86.101 2.84-129.1 3.98l-204.319 4.34c-83.021 2.05-166.105 1.56-249.081 5.77a1479.6 1479.6 0 0 0 -115.6288 9.89 762.47 762.47 0 0 0 -34.6155 5.08c-11.1561 1.95-25.6408 7.13-36.8405 5.91-3.1236-.34-4.9314-1.2-6.911-3.59-.0841-2.94.9318-4.08 2.5136-6.42 6.0102-3.75 15.0653-4.65 22.009-6.12 61.5011-13.04 124.5962-15.67 187.1512-19.7.759-14.24 2.695-29.64 11.146-41.62 7.148-10.14 15.253-12.75 26.828-14.68 7.818 3.29 13.916 6.59 22.778 4.92 3.512-5.45 7.363-11.17 11.779-15.93 4.683-5.05 16.41-11.02 23.514-9.83 4.173.71 7.968 3.31 12.182 3.76 4.404.48 9.139-1.47 13.601-1.56 8.476-.17 18.157 5.58 24.093 11.32 6.79-8.2 13.007-10.87 22.851-14.14-6.508-27.406-2.956-62.959-1.835-91.418.915-23.24 2.702-46.65 2.631-69.899-.145-47.535-8.414-92.868-22.311-138.179-5.912 10.264-13.14 19.633-23.694 25.482-9.474 5.251-20.323 6.632-30.667 3.204-16.615-5.506-23.521-18.466-31-32.882-22.712 20.656-57.885 35.505-88.652 36.483-16.772.534-32.686-3.357-45.003-15.49-19.632-19.337-21.294-47.528-21.348-73.324-6.979-1.64-13.04-3.408-17.441-9.605-4.189-5.899-3.903-13.215-2.385-19.983 6.35-28.297 30.353-52.12 53.852-67.398-.733-5-1.496-10.181-1.338-15.246.358-11.514 4.371-22.128 13.022-29.921-.066-11.955-.307-23.966.121-35.914 1.251-34.934 11.605-66.991 38.072-91.121 11.532-10.513 27.888-19.862 43.998-18.639 14.342 1.088 23.054 10.558 31.603 20.928l.212-1.205c2.777-15.022 6.913-34.129 20.722-43.047 3.986-2.575 8.622-3.895 13.322-2.729 7.36 1.825 12.423 8.047 16.052 14.246z"/><g fill="#fefefe"><path d="m919.523 861.471c5.264.831 12.258 1.067 16.05 5.176l-.528 2.86c-2.431 1.028-5.082 2.142-7.668 2.699-2.666.574-3.891.065-6.184-1.226-2.057-2.968-1.67-6.057-1.67-9.509z"/><path d="m439.563 710.744c.097.638.289 1.269.291 1.914.029 7.245-8.884 25.955-13.711 30.74-.923-2.586-2.139-5.419-1.98-8.208.4-7.035 10.518-19.821 15.4-24.446z"/><path d="m1124.72 764.394c1.88.615 3.92 1.222 5.63 2.237 2.03 1.2 3.63 3.421 3.83 5.829.32 3.976-2.19 7.551-4.81 10.205-3.02.695-4.79 1.444-7.57-.204-1.71-5.21 1.49-12.825 2.92-18.067z"/><path d="m1032.15 857.219.3.228.08 1.303c-3.1 2.992-6.42 5.577-10.12 7.787-5.5 3.283-10.63 5.284-16.94 3.77-1.73-2.114-2.46-2.211-2.55-5.05 4.94-4.956 21.92-5.828 29.23-8.038z"/><path d="m1096.8 1418.86c16.61 2.08 33.75 4.57 50.02 8.43l-8.83 1.41c-14.79.89-30.21 5.4-45.01 4.44l-.84-1.22c2.4-.34 1.22.01 3.54-1.12 1.41-3.95 1.15-7.81 1.12-11.94z"/><path d="m1097.07 1388.52c7.82 4.87 28.94 17.34 34.23 23.99l-1.28.9-37.59-5.3c1.21-6.66 2.79-13.08 4.64-19.59z"/><path d="m1051.46 1281.29c6.07 3.27 8.39 10.32 14.76 13.72 1.4.75 2.38 1.03 3.29 2.4.21.32.33.71.56 1.02 1.36 1.8 2.65 2.72 4.79 3.27.86-2.59-.03-4.59-.57-7.21 1.11.65.62.32 1.79 1.21l.89.68 2.01-1.2.81.97-3.28 1.05-.81 1.78c.93 2.77 2.26 4.5 4.68 6.13 2.04 1.37 3.83 1.76 6.25 1.32l.43-2.92c1.68-.1.75-.23 2.68.82l-.78 1.95.76.55 2.67 1.22c.83 5.54-6.66 14.18-9.7 18.6-8.2-4.69-18.74-9.87-24.89-17.04-6.5-7.57-7.17-18.77-6.34-28.32z"/><path d="m932.924 899.95c-.966 8.941-4.749 20.028-6.014 29.883-1.402 10.928-.468 21.526-1.379 32.359-1.788 1.9-1.835 2.216-4.37 2.624-4.331-3.335-7.324-8.83-10.415-13.303-5.385-7.78-11.508-15.178-17.285-22.677a1381.69 1381.69 0 0 0 39.463-28.886z"/><path d="m695.184 1503.06c2.33 0 5.01-.14 7.235.63 5.152 1.78 9.878 7.36 11.854 12.3 2.336 5.83 2.494 12.35-.069 18.14-2.633 5.94-6.939 8.31-12.698 10.72-2.592-.26-5.302-.48-7.765-1.38-5.04-1.85-9.285-6.26-11.522-11.07a21.8923 21.8923 0 0 1 -.496-17.54c2.651-6.44 7.331-9.09 13.461-11.8z"/><path d="m925.689 972.953c2.605 8.835 1.954 20.202 2.639 29.467-4.574.52-10.196 1.15-13.892 4.15-1.423 1.16-1.636 3.14-1.769 4.89-.235 3.06-.781 4.08-2.687 6.51-6.045 1.1-12.81 2.91-18.929 3.03-1.767.04-3.485.11-5.247.24-3.692-3.37-7.829-7.91-12.543-9.75-4.498-1.74-8.689-.11-12.897 1.62-1.01.74-2.022 1.47-3.061 2.16-2.345 1.56-4.108 2.62-6.92 2.07-1.695-3.1-.618-7.46-.231-10.89 27.276-7.65 51.094-19.477 75.537-33.497z"/><path d="m919.622 1052.19c2.597 6.86 9.485 12.26 14.544 17.5.551 4.03.743 8.15 1.074 12.21l-80.367 3.2-13.413 1.05c3.759-8.65 6.719-17.3 9.502-26.3 14.799 2.78 35.451 3.09 50.489 1.08 7.423-.99 13.538-2.57 18.171-8.74z"/><path d="m759.5 1193.59c9.696 3.17 19.209 5.41 29.334 6.68-7.771 24.84-17.303 49.04-26.573 73.34-.253.46-1.31 1.16-1.731 1.5-8.96.48-16.814-1.23-25.461-3.25a3969.96 3969.96 0 0 1 24.431-78.27z"/><path d="m1101.12 720.855c6.7 11.615 10.72 27.362 15.52 40.053-5.36 18.678-6.98 38.268-14.34 56.402-12.44 30.68-34.62 52.702-65.03 65.436-4.59 1.554-9.34 2.715-14 4.01 10.95-7.141 22.26-14.142 31.72-23.233 31.89-30.616 45.05-100.084 46.13-142.668z"/><path d="m1160.43 1437.4c6.39-.3 30.79-2.3 35.09 2.54 1.69 1.91 1.86 2.68 1.62 5.02-7.68 10.67-76.15 19.12-92.31 21.89-11.31 2.32-23.19 3.39-34.65 4.96a921.351 921.351 0 0 1 -.63-21.93c20.4-6.87 67.94-10.65 90.88-12.48z"/><path d="m1066.12 1399.06c.52.07.7.06 1.24.39 5.11 3.02 9.66 17.22 11.5 22.78-19.73 14.28-43.01 19.77-65.91 27.13-2.76-2.95-5.61-5.15-8.9-7.47-5.816-2.91-12.072-5.1-18.131-7.45 9.405-9.4 28.101-25.46 38.991-33.22 15.67 5.99 25.94 2.63 41.21-2.16z"/><path d="m734.825 1284.3c6.042.11 12.635-.1 17.25 4.43 8.504 8.36 7.664 34.65 7.414 45.69-.143 6.32-.225 13.03-1.419 19.26-4.529 23.59-33.611 126.05-49.139 140.91-2.608-.45-2.612-.52-4.386-2.5-1.889-9.32 7.33-25.83 10.999-34.84 12.585-32.14 34.997-107.88 30.177-142.17-.829-5.89-2.03-13.84-7.027-17.63-2.51-.22-3.133-.3-5.248 1.38-6.382 5.06-7.994 20.53-8.736 28.28l-22.645-3.69a122.64 122.64 0 0 1 2.217-6.87c5.355-15.22 16.314-25.39 30.543-32.25z"/><path d="m1055.86 1322.52c9.54 4.26 18.17 11.35 26.98 16.96 21.12 13.46 41.74 27.44 62.52 41.41 20.92 14.06 44.03 28.71 62.15 46.26-14.24-2.73-30.13-3.87-43.79-8.74-13.5-4.82-26.5-15.53-38.47-23.41-19.81-13.02-39.67-26.37-60.34-37.97-3.75-11.19-6.18-23.06-9.05-34.51z"/><path d="m1205.85 1290.34c7.21-.76 14.77-.68 21.91.7 18.79 3.63 33.4 16.61 44.03 31.91-24.81 4.79-50.54 6.19-75.69 8.57-21.33 2.01-42.92 4.98-64.33 5.44l9.79-10.13 9.69-9.01c20.06 3.13 62.54-4.99 83.86-8.47-27.48-1.86-55.36 4.74-82.69 6.93 15.87-14.21 32.27-22.77 53.43-25.94z"/><path d="m1209.18 1275.38c10.39-1.16 22.1.49 32.08 3.47 22.81 6.81 40.15 23.82 51.13 44.54 23.43 44.23 21.45 103.16 6.76 149.88-11.16 35.5-32.3 69.41-66.14 86.95-27.32 14.16-61.45 15.79-90.59 6.33-27.77-9.02-45.38-27.89-58.1-53.5-3.38-6.79-8.9-23.21-6.58-30.41l1.71-.65c.44.3 1.02.46 1.32.9 1.43 2.09 4.42 17.84 5.58 21.55a94.1731 94.1731 0 0 0 6.79 16.11c12.45 22.97 31.93 34.71 56.33 41.81 28.02 5.77 56.58 2.85 81.89-10.89 33.41-18.12 53.83-49.66 64.43-85.48 12.88-43.5 13.75-99.89-8.53-140.39-10.98-19.95-27.15-36.96-49.6-43.24-41.37-11.58-81.68 10.89-108.08 41.65-4.89 5.69-10.39 17.25-16.68 20.76-.17-5.16 8.1-15.39 11.37-19.39 22.11-27.03 49.58-46.26 84.91-50z"/><path d="m979.394 1165.88.589.05c.327.33.836.56.98 1 .257.81-5.467 14.93-6.12 17.07-15.107 49.62-5.985 95.11 14.07 141.7-5.942-4.53-12.191-8.71-18.308-13-2.097-1.68-3.678-3.31-5.077-5.6-15.864-26.06-36.955-72.12-29.049-102.72 4.852-18.77 27.501-29.57 42.915-38.5z"/><path d="m817.715 1053.74c7.866.83 15.614 1.85 23.162 4.28-.384 1.88-.878 3.64-1.494 5.46-8.513 25.11-18.774 49.73-27.993 74.6-5.786 15.6-10.306 32.3-17.12 47.44-1.28 2.84-2.391 4.59-5.258 6.01-8.865-1.68-17.416-3.95-25.79-7.32 7.203-19.98 17.248-39.25 25.583-58.82 10.092-23.69 18.69-48.01 28.91-71.65z"/><path d="m1087.69 864.79a220.964 220.964 0 0 1 2.5 1.134c16.84 7.776 23.61 20.188 29.77 36.833-6.1 17.733-17.99 34.882-27.75 50.824l-17.61-8.607c-13.87-6.028-28-10.225-42.82-13.154 9.21-29.364 30.74-50.656 55.91-67.03z"/><path d="m1038.89 943.791c10.66 1.832 20.56 5.12 30.59 9.097-15.14 28.62-33.31 46.453-57.49 67.232-6.83-2.27-14.238-4.53-21.131-.92-17.076 8.96-5.367 40.19-7.937 48.85-5.381 1.44-10.872-.47-16.61.76-.364.07-.725.16-1.087.25-2.081-2.52-4.218-4.96-6.413-7.38l-1.452.33c-.684.17-1.859.49-2.632.61-7.963 1.28-5.626-8.57-10.501-12.39-2.618 3.06-.823 7.18-3.535 10.23l-1.675-.42c-1.847-1.79-3.163-3.41-4.182-5.8-3.748-8.79-1.372-23.61 2.34-32.22 4.779-11.1 12.761-16.12 23.443-20.35l6.566 8.85c2.568-1.2 5.559-2.83 8.433-3.02 3.138-.2 6.201 3.18 8.413 5.09 26.1-15.814 40.05-43.218 54.86-68.799z"/><path d="m1683.43 722.724c2.04 3.199 0 7.105-1.15 10.523-5.81 17.318-10.39 35.161-15.77 52.639-9.41 30.496-19.68 60.535-24.5 92.204-2.62 17.202-2.68 34.501-3.97 51.814-8.5.118-15.81 1.474-23.85 4.137 1.32-23.646.3-49.42-5.02-72.492-7.83-33.9-22.7-65.873-31.31-99.573 1.71-4.435 3.88-8.557 6.09-12.755 2.11-2.009 3.63-3.763 6.6-4.35 4.34 3.63 8.13 29.847 10 36.581 6.25 22.474 18.64 42.063 24.34 64.739 1.78-3.646 3.39-7.197 3.87-11.27 1.03-8.684.36-17.893.29-26.637-.23-25.06-1.7-50.858 2.37-75.642 7.68 31.898 1.99 65.396 1.34 97.663 17.34-18.891 29.96-57.9 39.4-81.869 3.39-8.583 6.42-17.846 11.27-25.712z"/><path d="m671.617 1366.37c12.846-1.63 41.265-2.4 52.733 2.1 2.658 1.04 3.391 1.83 4.526 4.38-.285.72-.165 1.8-.854 2.15-2.16 1.07-10.644-.59-13.461-.88-34.441-3.57-70.634-2.32-99.932 18.36-39.17 27.65-62.341 77.58-70.066 123.72-6.885 41.13-1.928 90.48 23.107 125.11 16.907 23.39 43.573 37.5 71.819 41.78 36.048 5.46 70.29-4.73 99.204-26.41 39.015-29.26 57.661-73.05 64.261-120.31 6.057-43.38 3.634-90.47-23.631-126.48-6.064-6.73-14.141-11.27-19.809-17.98.16-2.29.22-2.35 1.726-4.09 3.799-.53 7.331 2.26 10.391 4.53 23.174 17.17 31.937 45.01 36.267 72.39 8.755 55.36-2.313 121.52-35.979 167.48a147.942 147.942 0 0 1 -98.573 59.57 116.882 116.882 0 0 1 -87.38-22.03c-30.152-22.99-45.081-57.53-49.776-94.47-6.925-54.49 6.987-111.9 41.08-155.31 24.814-31.59 54.364-48.93 94.347-53.61z"/><path d="m465.594 683.804c1.935 3.048-.927 12.982-1.682 16.864-6.3 32.407-21.761 61.673-30.999 93.128-15.8 53.802-16.529 141.344-11.773 198.242-9.787 5.94-13.631 10.812-18.182 21.102-2.113-27.321-2.051-53.99-.734-81.363 4.865-52.368 4.543-104.953-5.304-156.695a360.663 360.663 0 0 0 -6.368-27.614c-2.72-9.912-12.526-32.79-9.78-42.608.476-1.702.533-2.015 2.116-2.862 15.61 13.313 24.686 19.008 29.734 39.894 1.392 5.759 2.581 12.045 5.852 17.08 1.839 2.829 3.487 4.058 6.733 4.819 10.802-3.509 25.612-39.904 29.532-50.486 3.615-9.759 5.868-20.337 10.855-29.501z"/><path d="m868.51 1099.43c21.408-.75 42.877-.48 64.297-.51-6.091 6.01-13.463 11.04-20.142 16.41-16.731 13.45-32.152 28.34-43.435 46.76-12.708 20.75-15.788 41.12-10.039 64.69l2.377 9.96c-19.112-14.71-41.418-27.79-58.824-44.33 3.74-15.13 9.862-29.86 15.285-44.45l17.267-47.37c11.034.21 22.188-.66 33.214-1.16z"/><path d="m1007.71 516.839c20.05-.906 42.77 2.37 62.09 7.826-20.59 19.021-38.26 39.891-53.15 63.655-2.61 4.159-18.451 35.03-19.381 35.882-1.049.961-2.677.597-4.019.635-20.304-1.446-40.652 1.171-60.791 3.45a653.786 653.786 0 0 1 4.16-15.899c10.86-38.062 35.893-76.089 71.091-95.549z"/><path d="m798.279 1203.16c.244.12.49.23.732.35 7.664 3.9 14.945 10.27 21.851 15.44a2612.07 2612.07 0 0 0 35.599 26.41c33.588 24.3 67.326 48.24 100.625 72.95 11.875 8.81 27.032 17.82 36.931 28.63 4.669 5.1 18.923 37.97 21.613 46.02l-.51.35-5.58-3.51c-38.567-22.2-73.655-50.56-109.694-76.58-37.178-26.84-75.738-52.51-111.485-81.22 3.068-9.73 6.304-19.3 9.918-28.84z"/><path d="m984.849 518.421c1.18-.133 2.172.022 3.344.164-6.235 6.887-14.133 12.566-20.568 19.501-24.637 26.55-37.49 57.816-45.249 92.87-32.4 12.314-53.336 31.63-69.527 61.806-2.93-5.019-4.432-10.481-4.988-16.247-3.041-31.536 18.53-86.265 38.098-110.163 25.114-30.673 60.258-44.198 98.89-47.931z"/><path d="m979.752 880.931c.107-.01.214-.018.321-.031 12.094-1.485 32.027 17.715 47.037 18.376 4.15.182 8.97-1.694 12.92-2.855-6.15 9.533-23.51 31.65-19.97 43.204.93 3.03 4 4.339 6.57 5.763-10.3 18.494-20.78 36.137-36.684 50.433-12.875 8.089-18.895-2.406-31.592-1.84-8.107.362-13.64 5.712-18.979 11.149-6.982-28.271-7.345-87.981 5.779-113.603 12.513-2.15 22.968-5.501 34.598-10.596z"/><path d="m788.413 978.017c36.012-3.604 69.385-21.388 99.351-40.381 9.087 8.723 16.035 20.202 22.124 31.129-21.3 17.285-57.561 30.226-84.393 33.895-9.488 1.3-17.062-1.93-26.727 1.18.003-3.79.688-7.043-1.207-10.409-8.325-5.135-25.625-3.196-35.613-4.245-10.464 7.512-15.834 19.164-22.001 30.134 2.074-1.58 7.969-6.82 10.569-6.19 1.742.42 2.15 1.09 3.381 2.25 5.923 5.55 26.512 4.96 34.407 4.56 2.548-.13 5.328-.18 7.837-.6 2.5-.29 4.38-.46 6.839.28 10.985 3.33 21.751 3.86 33.064 5.39 12.355 1.67 24.849 3.76 37.284 4.67 8.616.64 25.704-3.05 32.403 1.92a9.84081 9.84081 0 0 1 3.836 6.65c.435 3.29-.788 7.21-3.329 9.47-12.299 10.93-81.801-3.25-100.19-5.51a1736.75 1736.75 0 0 0 -60.355-6.25c-4.006-4.94-7.802-9.84-12.771-13.85.759-4.56 1.418-8.8 1.184-13.46l-2.48-1.36 1.653-2.19c-3.939 4.13-5.165 11.42-7.478 16.62-.934 2.11-1.559 3.97-3.765 4.85-1.446-1.97-1.468-3.59-1.729-6-1.482-13.66 2.557-31.309 11.467-41.883 6.918-8.209 17.518-13.471 28.218-14.213 12.55-.87 19.783 5.649 28.421 13.543z"/><path d="m940.611 1103.89c25.59 2.22 51.224 3.63 76.819 5.72-9 11.48-15.85 27.48-26.153 37.42-4.936 4.76-11.412 7.76-17.378 11.02-18.222 9.94-39.37 20.62-47.941 40.78-10.507 24.73 5.116 71.01 15.202 95l-19.647-14.44c-14.05-9.83-37.926-23.24-47.445-36.99-3.344-4.83-5.236-11.3-7.332-16.77a93.9004 93.9004 0 0 0 6.012.84c11.308 1.17 33.012 2.27 42.254-5.2l-.402-1.46c-12.864-5.27-36.323.23-46.251-4.26-2.902-3.87-3.449-7.77-3.197-12.56 2.4-45.54 44.97-70.4 74.551-98.23z"/><path d="m1123.47 914.706c11.12 13.656 26.16 104.834 28.78 126.474 1.89 15.75 2.63 31.6 3.37 47.43-13.78 2.47-27.1 6.4-41.01 8.37-51.69 7.3-103.07 3.43-154.854-.21l-10.878-1.39-2.437-23.72c14.377 4.7 26.931 7.62 42.098 7.36l7.234-7.48c6.017.58 12.797 1.7 18.807 1.3 4.68-.31 8.56-2.03 11.63-5.64 5.9-6.94 6.85-18.43 5.69-27.08-.99-7.43-3.41-12.76-9.41-17.35 22.62-18.01 39.59-38.086 54.45-62.761 6.89 3.682 12.35 7.565 20.39 5.719 4.77-3.109 21.02-42.293 26.14-51.022z"/><path d="m1136.42 1101.43c2.08-.32 1.78-.18 3.49.72.09.4.22.79.27 1.19.59 5.07-2.12 12.29-4.01 17.05-18.15 45.59-62.44 52.08-86.56 90.32-28.89 45.82 1.29 127.32 12.53 176.45a54.665 54.665 0 0 1 -5.32 3.18c-10.66 5.7-19.82 3.93-30.8.61-1.85-2.99-3.38-6.23-5.01-9.34-15.39-30.91-37.218-88.13-42.55-122.07a161.627 161.627 0 0 1 20.519-105.42c9.261-15.45 20.581-29.38 31.111-43.93 35.87-1.17 70.74-4.26 106.33-8.76z"/><path d="m1266.82 1330.39c1.5-.21 3.17-.56 4.69-.53 1.84.03 2.93-.09 4.15 1.29 3.71 4.18 5.55 10.99 7.2 16.25 7.59 24.27 8.71 45.79 7.81 71-18.6.4-35.69.33-52.14 10.21 17.05-1.29 33.63-3.92 50.82-3.72-.71 16.67-3.35 34.21-10.18 49.5-21.22 3.6-43.52 6.05-63.86 13.27 20.69-.14 41.09-3.43 61.61-5.73-2.96 7.56-6.61 13.74-11.31 20.32-6.73 1.71-39.61 9.89-42.75 12.88l1.31 1.41c10.7 3.11 25.21-2.85 35.81-5.7-2.91 4.27-6.23 8.46-9.78 12.22-19.99 21.16-45.76 29.74-74.29 30.39-17.48-.36-35.11-3.72-49.9-13.53-21.18-14.03-28.86-35.59-33.63-59.48 18.11-3.64 95.21-14.66 106.39-21.6 5.73-3.55 6.52-13.91 7.8-19.96 5.18.22 11.55.44 15.51-3.52 1.35-1.37 1.83-3.42 1.58-5.3-.52-3.8-2.43-6.62-5.04-9.31-8.66-8.92-20.26-16.01-30.37-23.23a4160.84 4160.84 0 0 0 -65.1-45.07l3.78-7.31c13.8-.27 27.78-2.19 41.52-3.53 32.9-3.19 65.55-7.41 98.37-11.22z"/><path d="m1081.44 528.67c7.71 1.827 15.49 4.386 22.82 7.368 42.65 17.344 76.88 48.498 94.63 91.289 18.38 44.318 14.8 93.602-3.1 137.283-3.81 2.443-7.37 4.238-11.8 5.294-13.16 3.136-25.34.131-36.57-6.927-25.8-24.845-16.58-57.689-37.89-86.327-23.56-31.662-63.8-45.117-101.4-50.445 12.99-36.9 43.45-73.266 73.31-97.535z"/><path d="m931.599 660.954c5.458.822 10.851 4.461 16.268 5.941 4.87 1.329 10.221.129 15.19.815 4.879.675 9.863 2.412 14.607 3.743 13.009 3.648 22.426 2.792 35.496.304l10.84 7.382c2.71-.554 6.84-1.795 9.58-.865 4.76 1.623 11.01 15.132 15.1 19.23 3.83 3.838 11.75 6.549 16.76 9.029 3.74 6.882 7.78 11.591 13.88 16.373-1.44 40.736-16.05 88.094-35.75 123.243-7.32 1.122-14.58 2.915-21.81 4.502-16.8 3.107-33.311 5.605-50.457 5.429-27.964-.289-60.371-4.336-80.734-25.64-18.31-19.157-20.416-49.081-14.396-73.795 3.051-12.523 8.408-24.303 11.009-37.002 3.668-17.91 4.246-36.18 4.606-54.395 15.536-.926 25.13 3.731 39.811-4.294z"/></g><path d="m1042.73 725.708c.95.086 2.44.182 3.32.46 2.74.873 3.19 2.026 4.49 4.36.07 3.513-.63 5.733-1.95 8.97l-3.42.015c-1.43-.856-2.58-1.146-3.33-2.735-1.75-3.734-.46-7.441.89-11.07z"/><path d="m1003.91 719.687 4.46.731c1.94 1.576 3.32 2.237 3.5 4.977.2 2.903-1.77 5.415-3.35 7.64l-3.47-.045c-2-1.329-3.25-1.934-3.74-4.53-.62-3.287 1.02-6.059 2.6-8.773z"/><path d="m905.783 718.703c1.357.09 3.444.062 4.674.603 2.267.997 3.786 2.62 4.282 5.089.637 3.167-1.181 6.463-2.501 9.205-1.639-.137-3.272-.237-4.822-.853-1.981-.789-3.735-2.427-4.311-4.531-.99-3.62.784-6.634 2.678-9.513z"/><path d="m948.465 722.639c2.369 1.112 4.51 2.026 5.864 4.42 1.488 2.629 1.859 6.136.862 8.991-2.329 6.672-6.828 9.561-12.804 12.686-2.65-.677-4.098-1.665-5.996-3.58l.052-1.745c2.21-3.047 6.254-4.738 9.488-6.552.978-1.674.927-1.139 1.101-2.754.415-3.859.816-7.624 1.433-11.466z"/><path d="m970.461 758.814c2.03.635 4.412 1.971 5.683 3.691.823 1.113.539.844.183 2.317-1.495 1.678-2.906 2.838-4.873 3.956-10.085 5.729-20.471 6.643-31.419 3.752-.845-.632-2.414-1.64-3.032-2.575-1.359-2.058-1.711-3.793-1.301-6.165 6.03-3.443 12.062 2.347 18.019 2.813 5.666.444 12.239-4.667 16.74-7.789z"/><path d="m544.918 962.916c1.848-.113 3.746-.251 5.595-.118 3.652.265 7.549 2.169 9.936 4.953 5.384 6.278 4.374 15.59 3.933 23.217 4.181-2.296 8.532-4.856 13.399-5.173 3.692-.24 6.752.601 9.413 3.332 4.516 4.633 3.99 11.253 3.991 17.193 3.565-2.49 7.195-5.29 11.032-7.327 2.922-1.551 6.713-2.464 9.884-1.131 4.995 2.099 7.71 8.538 9.596 13.188 4.244-2.37 8.539-4.66 12.812-6.98 12.436 15.53 21.87 15.81 32.822 36.19 2.783-4.92 4.395-11.08 7.822-15.53 1.61-2.08 3.714-3.59 6.435-3.71 5.298-.24 9.702 3.84 13.726 6.77 3.621-.23 10.537-1.83 13.701.04 2.19 3.77 4.154 6.29 7.61 8.99.317.25.642.49.962.74l11.772-3.73c2.995 3.04 6.972 8.1 10.847 9.84 4.813 2.17 54.239 6.27 65.386 8.11-3.129 12.51-7.196 24.11-12.513 35.86a27357.4 27357.4 0 0 1 -356.527 8.43c-67.02.66-134.057 3.28-201.081 4.17 2.521-12.82 5.263-27.86 14.118-38.04 2.009-2.31 3.716-3.36 6.852-3.53 6.641 2.21 9.327 10.93 13.288 16.29l.7.94 6.051-13.25c5.824 3.31 10.892 7.81 16.072 12.03.876-5.05 1.613-10.31 3.01-15.24 2.423-8.56 8.179-19.11 16.438-23.3 2.306-1.17 4.701-1.64 7.162-.56 6.038 2.65 8.229 10.77 9.876 16.53 2.055-2.83 4.089-5.81 6.439-8.41 2.695-2.98 7.143-5.79 11.337-5.47 10.88.83 18.43 15.93 25.676 22.9.271.26.547.51.82.77 5.218-10.45 11.405-22.91 22.591-28.19 3.034-1.43 5.778-1.76 8.934-.41 2.612 1.13 4.725 2.68 7.613 1.8 2.714-8.5.756-16.93 4.396-25.59.153-.36.313-.72.47-1.08 4.031-2.33 9.564-5.79 14.386-4.29 1.934.6 3.918 1.42 5.839 2.09 3.896-4.1 5.518-17.489 12.027-24.792 4.011-4.501 9.222-7.731 15.385-7.803 11.159-.13 19.056 6.746 26.372 14.143.754-2.255 1.493-4.527 2.421-6.719 1.673-3.955 5.17-9.236 9.649-10.379 8.367-2.136 18.348 10.406 25.332 13.909 7.17-.341 6.126-14.385 15.314-21.054.29-.21.586-.413.879-.619z" fill="#fefefe"/><path d="m673.729 1384.39c15.342-2.8 36.132-.22 51.473 2.79-9.924 34.56-18.649 72.8-36.1 104.49a212.981 212.981 0 0 0 -3.142 2c-8.438 5.49-15.842 12.45-17.724 22.79-1.655 9.1.985 19.21 6.389 26.64 5.044 6.93 12.709 12.14 21.273 13.38a26.4834 26.4834 0 0 0 19.954-5.2c7.062-5.47 11.741-14.96 12.413-23.8.782-10.29-3.747-18.4-10.15-25.96 16.708-30.64 27.505-64.56 37.778-97.77 3.319 2.25 6.578 4.71 9.471 7.49 26.206 25.21 28.817 65.96 28.937 99.97-20.355 3.96-40.689 8.17-59.886 16.22 19.947-.21 39.064-4.23 58.823-6.32-1.194 16.53-4.975 32.3-9.137 48.26-21.192 7.19-45.092 14-64.117 25.85 20.023-3.19 40.353-9.59 60.262-13.99-3.022 8.6-7.129 17.03-11.546 24.99-18.259 32.94-47.235 53.16-83.111 63.38-17.153 3.47-34.636 4.14-51.755.14-27.465-6.41-45.907-19.89-60.706-43.69 20.034-3.87 44.226-9 62.141-18.78-22.345 3.27-44.546 7.74-66.9 10.69-6.002-12.05-9.663-23.48-11.855-36.77 4.889-.85 17.321-1.49 20.94-4.22-6.696-3.15-14.091-2.76-21.302-2.63-2.111-11.33-2.149-23.3-2.294-34.8 7.844-2 35.36-6.99 39.757-11.98l-1.208-1.29c-9.934-2.68-27.617 3.61-37.739 5.79.816-9.95 3.026-19.83 4.867-29.63 13.67-3.27 90.245-21.02 96.965-25.85l-.974-1.33c-19.634-2.16-71.322 10.68-92.324 15.49 7.018-22.93 17.329-43.04 31.085-62.62 29.587-7.29 60.834-9.37 90.247-17.63 2.579-.72 3.916-.83 5.269-3.29l-1.593-1.4c-16.216-2.84-63.219 7.66-82.474 10.81 18.167-20.2 41.45-29.15 67.993-32.22z" fill="#fefefe"/><path d="m1712.45 936.77c1.16.258 1.76.361 2.83.691 12.77 3.936 17.14 18.186 23.07 28.753 6.74-3.38 15.85-8.843 23.64-6.248 8.08 2.692 11.91 14.057 15.14 21.02 1.71-1.314 3.44-2.629 5.28-3.759 3.27-2.009 6.71-2.724 10.49-1.676 6.49 1.801 10.35 9.624 13.57 14.924 3.39-2.236 6.84-4.664 10.68-6.047 2.68-.965 5.9-1.352 8.45.191 5.87 3.552 6.86 12.351 8.3 18.441.45-.11.9-.21 1.34-.33 2.26-.59 5.29-1.9 7.62-1.33 5.33 1.31 9.57 14.19 13.09 18.67l.85 1.06c2.4-6.63 5.11-14.16 10.29-19.14 2.71-2.607 6.04-4.216 9.88-3.995 22.31 1.287 15.11 25.505 24.78 36.225 3-2.09 2.27-11.48 5.32-14.93.98-1.11 1.83-1.87 3.33-2 5.1-.41 12.21 7.74 16.01 11.17.13-3.4.15-6.96.97-10.28.74-2.97 1.91-5 4.59-6.61 9.41-1.35 19.2 17.54 27.28 21.63 5.35 2.71 7.4-6.23 12.95-8.32 5.03.44 9.7 3.13 13.55 6.29 15.24 12.54 19.25 31.2 20.89 49.81l-146.21 2.99a492.442 492.442 0 0 0 -3.56-21.14c-2.58 6.8-4.35 14.05-6.38 21.03l-173.26 1.33-181.4.93c-32.35.25-65.82 2.7-98.06.47-3.58-.25-6.71-1.05-10.07-2.27 4.59-1.48 14.1-1.77 17.15-5.18-.25-5.23-5.5-10.88-6.97-16.2-.88-3.2-.83-6.42 1.08-9.27 3.32-4.97 8.85-6.27 14.33-7.47-1.21-3.4-2.51-6.85-3.37-10.36-1.13-4.63-1.22-7.85 1.25-11.97 1.67-1.13 2.64-1.68 4.71-1.88 11.12-1.02 24.75 11.73 32.46 18.43 1.07-7.67 2.44-14.98 5.96-21.99 2.08-4.14 5.12-8.38 9.81-9.69 3.93-1.1 6.66.2 10.08 1.98 1.34.69.59.59 2.1.3l.37-1.14c1.13-3.43 1.68-6.07 5.25-7.64 8.75-3.864 24.02-1.58 32.74 1.73 9.96 3.78 14.17 9 18.48 18.23 29.29-7.38 12.5-13.13 20.81-23.331 4.49-5.511 16.16-7.677 22.88-8.771l9.76 10.072c1.1-19.644.9-32.598 11.28-50.239 2.11 3.275 4.68 7.635 8.64 8.699 3.54-4.301 4.45-8.845 9.3-12.617 4.76-3.699 10.66-5.502 16.64-4.379 10.97 2.06 17.22 10.964 22.91 19.628 2.51-6.05 4.73-13.449 9.33-18.237 2.18-2.262 4.79-3.966 8.1-3.552 8.69 1.086 17.56 16.387 22.62 22.958a181.551 181.551 0 0 1 1.95-7.644c2.64-9.303 6.86-13.316 15.1-18.017z" fill="#fefefe"/><path d="m412.355 321.192c6.086-.636 11.952-.692 17.918.876 25.5 6.701 32.125 34.078 37.184 56.523 1.306 5.795 2.182 13.219 5.326 18.315 1.122 1.818 2.559 3.655 4.878 3.266 8.997-1.508 17.785-5.426 26.585-7.892 24.408-6.838 52.997-9.525 77.83-3.386 67.14 16.597 35.98 79.393 42.998 89.003 7.736 10.592 56.506 7.961 75.463 40.262 9.425 16.059 14.481 66.789 4.601 82.785-4.479 7.251-19.162 11.705-20.905 19.556-1.485 6.688 8.438 15.871 5.616 25.738-3.058 10.692-10.564 12.079-19.133 17.207-10.94 6.546-6.335 26.617-9.358 37.991-3.495 13.15-11.851 22.309-23.623 28.761-32.343 17.726-65.95 6.15-98.757-3.064-28.102-7.894-24.833 6.357-44.642 16.713-9.706 5.075-19.154 3.289-29.121.383 3.739-11.401 7.868-22.8 10.416-34.537 2.355-10.845 7.884-35.002.94-44.768-1.652-2.324-4.231-3.627-7.071-3.726-7.766-.27-27.886 31.372-34.759 37.812l-1.108 1.03c-4.795-7.247-11.868-19.238-20.24-22.54-2.314-.912-4.875-.972-7.096.277-4.359 2.45-5.623 8.446-7.114 12.85.028 3.059.541 6.185.889 9.229-5.694-3.643-13.198-14.216-19.513-14.976-9.675 2.736-21.361 35.396-33.913 47.243-6.17 5.823-12.734 9.05-21.355 8.552-25.918-1.494-23.709-27.803-34.221-39.236-7.899-.08-20.186 14.108-27.499 18.526-20.182 12.194-44.507 23.027-68.491 23.244-13.197.118-25.951-2.955-35.459-12.717-15.282-15.69-17.609-39.254-17.448-59.946.029-3.661.531-13.718-2.278-16.077-2.407-2.021-4.994-2.003-7.948-1.781-3.578.27-6.044.897-8.988-1.397-1.199-3.117-1.118-5.678-.658-8.913 2.914-20.456 18.695-39.367 34.798-51.33 5.778-4.293 12.265-7.828 17.853-12.332 12.222-9.852-1.971-15.535-.346-26.877 1.495-10.439 15.121-17.863 15.461-26.965.191-5.088-2.634-11.158-3.399-16.285-1.368-9.158.156-21.085 1.145-30.314 2.962-27.648 15.334-56.708 37.644-74.204 8.808-6.908 21.079-13.36 32.534-11.673 21.884 3.224 22.059 23.693 33.067 36.435 1.716 1.987 2.682 2.164 5.207 2.222l-1.011-.547 1.457.222c4.279-6.771 3.477-19.791 4.587-27.829 1.277-9.249 6.52-31.7 15.139-36.497 1.394-.776 2.723-1.414 4.317-1.04 8.646 2.024 11.934 19.836 17.213 26.242 1.633 1.981 2.58 2.268 5.053 2.387 1.386-.945 2.836-1.79 3.544-3.402 1.432-3.265 1.351-7.952 2.018-11.515 1.17-6.246 4.933-13.163 8.25-18.545 12.705-20.612 32.229-33.824 55.523-39.339z" fill="#fefefe"/><path d="m1629.95 332.245c7.79-1.015 14.54-.532 21.79 2.687 21.85 9.69 32.48 37.679 37.65 59.268 1.88 7.84 2.66 16.961 5.9 24.315 2.62 5.955 5.76 5.262 11.33 3.882 9.67-2.394 19.23-5.304 29.03-7.112 28.05-5.175 62.49-5.072 89.39 5.364 35.06 13.604 38.35 41.508 33.8 74.542-.98 7.146-3.49 15.823-.54 22.654 6.55 6.315 24.31 6.44 33.34 8.783 19.22 4.987 37.49 14.33 47.64 32.081 12.89 22.558 12.72 60.266 5.66 84.56-5.13 17.649-15.96 17.94-30.22 25.712-2.2 6.902 7.07 8.733 7.7 16.632 1.01 12.743-5.59 25.298-16.05 32.254-2.93 1.947-8.36 4.471-10.37 7.323-6.18 8.751 4.39 34.352-15.64 56.407-27.61 30.41-79.96 15.976-112.98 5.167-7.56-2.477-19.63-8.353-27.41-7.841-9.87.649-20.93 26.811-43.22 27.384-5.21.134-12.78-2.238-16.16-6.425-1.59-1.967-1.65-4.871-1.33-7.261.66-4.92 2.97-9.932 4.52-14.644 5.1-15.486 15.87-41.373 15.15-57.499-.16-3.681-1.3-7.635-4.44-9.885-3.33-2.382-9.09-2.677-12.91-1.591-13.75 3.907-26.56 48.106-33.38 61.405.85-13.655 2.38-31.476-6.59-42.864-2.49-3.172-6.74-6.884-11.06-6.868-2.8.01-4.66.859-6.72 2.715-10.84 9.767-8.28 37.7-8.4 51.118.16 2.588.41 4.153-.52 6.648-7.84-13.212-4.41-32.136-10.67-45.84-1.54-3.391-3.81-6.239-7.56-7.29-23.47-6.578-36.35 51.902-59.7 62.965-6.79 3.22-15.51 3.533-22.54.819-20.64-7.968-11.95-31.026-18.5-41.642-.84-1.367-1.84-2.341-3.41-2.675-8.04-1.714-32.41 19.106-39.65 23.641-23.97 15.034-50.96 27.632-79.87 20.616-32.5-7.887-46.42-39.409-49.16-70.237-.66-7.418.39-22.22-3.26-28.17-6.65-2.864-14.77.227-21.5 1.76-.1-3.91-.27-7.908.22-11.797 3.34-27.084 21.6-51.599 45.2-64.748 6.42-3.575 15.92-5.791 21.42-10.438 1.8-1.522 1.64-2.326 1.92-4.539-1.33-3.758-3.51-6.179-6.09-9.172a109.85 109.85 0 0 1 .32-6.406c.62-8.086 1.99-18.153 8.26-23.914 2.39-2.199 5.71-3.857 7.87-6.219 4.76-5.196-1.43-23.473-1.97-30.51-2.36-30.846 8.61-69.086 29.39-92.343 9.74-10.895 24.26-20.96 39.31-21.4 30.74-.899 33.12 41.083 45.06 50.175 2.23 1.7 2.71 1.754 5.27 1.317 4-4.158 1.38-25.266 2.57-32.47a81.6924 81.6924 0 0 1 7.31-22.445c3.54-7.139 14.83-25.496 23.04-26.867 9.51-1.588 12.18 21.308 18.43 26.594 1.8.61 3 1.172 4.94.747 1.54-.339 2.59-1.846 3.22-3.236 5.33-11.714 8.11-23.316 15.38-34.32 13.92-21.05 35.07-35.798 59.79-40.867z" fill="#fefefe"/></svg>