<svg width="32" height="32" viewBox="0 0 32 32" fill="none" xmlns="http://www.w3.org/2000/svg">
<path fill-rule="evenodd" clip-rule="evenodd" d="M5 4C5 2.89543 5.89543 2 7 2H17C17.2652 2 17.5196 2.10536 17.7071 2.29289L26.7071 11.2929C26.8946 11.4804 27 11.7348 27 12V28C27 29.1046 26.1046 30 25 30H7C5.89543 30 5 29.1046 5 28V4ZM16 4L7 4V28H25V13H17C16.4477 13 16 12.5523 16 12V4ZM18 5.41421L23.5858 11H18V5.41421Z" fill="#333333"/>
<path d="M22 26H10C9.44772 26 9 25.5523 9 25C9 24.4477 9.44772 24 10 24L22 24C22.5523 24 23 24.4477 23 25C23 25.5523 22.5523 26 22 26Z" fill="#333333"/>
<path d="M17 22H10C9.44772 22 9 21.5523 9 21C9 20.4477 9.44772 20 10 20H17C17.5523 20 18 20.4477 18 21C18 21.5523 17.5523 22 17 22Z" fill="#333333"/>
</svg>
