<?xml version="1.0" encoding="utf-8"?>
<svg version="1.1" xmlns="http://www.w3.org/2000/svg" xmlns:xlink="http://www.w3.org/1999/xlink" viewBox="0 0 400 400">
	
 	<rect width="400" height="400" fill="snow" />
	
	<g stroke="green" style="stroke-width: 3" fill="none"> 
	 	<ellipse cx="90" cy="90" rx="50" ry="50" />
	
		<ellipse cx="270" cy="90" rx="30" ry="50" />
	
	 	<ellipse cx="90" cy="270" rx="50" ry="30" />
	
		<circle cx="270" cy="270" r="50" />
	</g>
	
	<path d="M40,90
			 A 50,50 0 0 1 140,90
			 A 50,50 0 1 1 40,90" stroke-width="2" stroke="red" fill="none" />
					 
	<path d="M240,90
			 A 30,50 0 0 1 300,90
			 A 30,50 0 1 1 240,90" stroke-width="2" stroke="red" fill="none" />
				 
	<path d="M40,270
			 A 50,30 0 0 1 140,270
			 A 50,30 0 1 1 40,270" stroke-width="2" stroke="red" fill="none" />

</svg>


