<?xml version='1.0' encoding='iso-8859-1'?>
<!DOCTYPE svg PUBLIC '-//W3C//DTD SVG 1.1//EN' 'http://www.w3.org/Graphics/SVG/1.1/DTD/svg11.dtd'>
<svg version="1.1" xmlns="http://www.w3.org/2000/svg" viewBox="0 0 275.999 275.999" xmlns:xlink="http://www.w3.org/1999/xlink" enable-background="new 0 0 275.999 275.999">
  <g>
    <path d="m223.175,23.133h-53.901v-17.133c0-3.313-2.687-6-6-6h-50.55c-3.313,0-6,2.687-6,6v17.133h-53.9c-3.313,0-6,2.687-6,6v240.866c0,3.313 2.687,6 6,6h170.352c3.313,0 6-2.687 6-6v-240.866c-0.001-3.314-2.687-6-6.001-6zm-6,240.866h-158.351v-228.866h47.901v34.863c0,1.759 0.772,3.43 2.111,4.569 17.535,14.921 18.629,14.921 21.025,14.921h15.836c2.336,0 3.403,0 21.398-14.865 1.38-1.14 2.179-2.836 2.179-4.626v-34.862h47.901v228.866zm-59.901-251.999v55.16c-5.204,4.254-10.798,8.682-13.149,10.326h-12.67c-2.311-1.655-7.717-6.053-12.73-10.273v-55.213h38.549z"/>
    <path d="m127.609,24.743c0,3.313 2.687,6 6,6h8.78c3.313,0 6-2.687 6-6s-2.687-6-6-6h-8.78c-3.313,0-6,2.686-6,6z"/>
    <path d="m138,181.465c19.949,0 36.179-16.229 36.179-36.179s-16.23-36.179-36.179-36.179-36.179,16.23-36.179,36.179 16.229,36.179 36.179,36.179zm0-60.358c13.332,0 24.179,10.847 24.179,24.179 0,13.332-10.847,24.179-24.179,24.179s-24.179-10.847-24.179-24.179c0-13.332 10.846-24.179 24.179-24.179z"/>
    <path d="m81.702,209.668v28.776c0,3.313 2.687,6 6,6h100.596c3.313,0 6-2.687 6-6v-28.776c0-10.862-8.836-19.698-19.698-19.698h-73.2c-10.862,0-19.698,8.837-19.698,19.698zm12,0c0-4.245 3.453-7.698 7.698-7.698h30.6v30.474h-38.298v-22.776zm88.596,0v22.776h-38.298v-30.474h30.6c4.244,0 7.698,3.454 7.698,7.698z"/>
  </g>
</svg>
