<svg width="64px" height="64px" viewBox="0 0 64 64" version="1.1" xmlns="http://www.w3.org/2000/svg" xmlns:xlink="http://www.w3.org/1999/xlink">
    <!-- Generator: Sketch 51.2 (57519) - http://www.bohemiancoding.com/sketch -->
    <title>Bank Logos/robinhood</title>
    <desc>Created with Sketch.</desc>
    <defs>
        <polygon id="path-1" points="2.2586706e-05 0.393471572 13.6137545 0.393471572 13.6137545 22 2.2586706e-05 22"></polygon>
        <polygon id="path-3" points="0.775688652 0.387387341 13.706 0.387387341 13.706 12.776866 0.775688652 12.776866"></polygon>
    </defs>
    <g id="Bank-Logos/robinhood" stroke="none" stroke-width="1" fill="none" fill-rule="evenodd">
        <circle id="Oval-2" fill="#1FCE99" fill-rule="nonzero" cx="32" cy="32" r="32"></circle>
        <g id="Group-9" transform="translate(22.000000, 17.000000)">
            <g id="Group-3" transform="translate(0.000000, 6.612600)">
                <mask id="mask-2" fill="white">
                    <use xlink:href="#path-1"></use>
                </mask>
                <g id="Clip-2"></g>
                <path d="M4.2661,14.3382 C4.3431,14.1872 4.7021,13.4992 4.7831,13.3462 L4.7981,13.3192 C7.1991,8.8102 10.1261,4.5562 13.4951,0.6772 L13.5881,0.5692 C13.6171,0.5362 13.6221,0.4882 13.6001,0.4492 C13.5791,0.4102 13.5351,0.3892 13.4921,0.3942 L13.3511,0.4142 C11.1411,0.7172 8.9031,1.1362 6.6991,1.6612 C6.4801,1.7212 6.3391,1.8642 6.3081,1.8972 C4.6591,3.8632 3.0961,5.9342 1.6631,8.0552 C1.5911,8.1622 1.5831,8.4192 1.5831,8.4192 C1.5831,8.4192 1.9451,11.1812 2.4711,13.2162 C1.1671,16.9472 0.0041,21.8622 0.0041,21.8622 C-0.0049,21.8952 0.0011,21.9292 0.0211,21.9562 C0.0411,21.9832 0.0721,21.9982 0.1051,22.0002 L0.8471,22.0002 C0.8931,22.0002 0.9351,21.9732 0.9501,21.9302 L1.0011,21.7912 C1.7591,19.7352 2.6211,17.7052 3.5761,15.7282 C3.7991,15.2682 4.2661,14.3382 4.2661,14.3382 M8.6861,16.0502 L8.5021,16.1112 C7.3161,16.5042 5.5631,17.1082 3.9881,17.8282 C3.9041,17.8672 3.8491,17.9772 3.8491,17.9772 C3.8191,18.0452 3.7831,18.1282 3.7411,18.2222 L3.7361,18.2342 C3.5581,18.6332 3.3151,19.2342 3.2121,19.4792 L3.1311,19.6722 C3.1181,19.7032 3.1261,19.7382 3.1491,19.7612 C3.1641,19.7752 3.1831,19.7832 3.2031,19.7832 C3.2161,19.7832 3.2281,19.7812 3.2401,19.7752 L3.4291,19.6862 C3.8611,19.4822 4.4051,19.1722 4.9771,18.9012 L4.9971,18.8922 C6.0851,18.3792 7.3121,17.7992 8.0501,17.4482 C8.0511,17.4472 8.1701,17.3852 8.2301,17.2672 L8.7831,16.1612 C8.7981,16.1332 8.7931,16.0982 8.7721,16.0732 C8.7521,16.0492 8.7161,16.0402 8.6861,16.0502" id="Fill-1" fill="#FFFFFF" mask="url(#mask-2)"></path>
            </g>
            <path d="M14.5829,8.0958 L14.5809,7.9548 C14.5799,7.9108 14.5529,7.8708 14.5109,7.8568 C14.4689,7.8408 14.4219,7.8528 14.3929,7.8868 L14.2999,7.9928 C10.3719,12.5158 7.0709,17.5368 4.4859,22.9148 L4.4269,23.0408 C4.4079,23.0798 4.4149,23.1278 4.4459,23.1588 C4.4659,23.1798 4.4929,23.1918 4.5209,23.1928 C4.5359,23.1928 4.5509,23.1898 4.5639,23.1838 L4.6939,23.1318 C6.8999,22.2208 9.1539,21.4318 11.3929,20.7888 C11.5259,20.7508 11.6399,20.6568 11.7029,20.5328 C12.6859,18.6298 14.9629,14.9428 14.9629,14.9428 C15.0199,14.8598 15.0069,14.7368 15.0069,14.7368 C15.0069,14.7368 14.6069,10.3268 14.5829,8.0958" id="Fill-4" fill="#FFFFFF"></path>
            <g id="Group-8" transform="translate(7.000000, 0.612600)">
                <mask id="mask-4" fill="white">
                    <use xlink:href="#path-3"></use>
                </mask>
                <g id="Clip-7"></g>
                <path d="M10.038,0.389 C8.898,0.365 7.543,0.609 6.007,1.113 C5.776,1.194 5.595,1.321 5.43,1.481 C3.869,2.941 2.349,4.489 0.913,6.089 L0.803,6.211 C0.772,6.245 0.767,6.295 0.79,6.335 C0.814,6.375 0.86,6.396 0.906,6.386 L1.065,6.352 C3.381,5.859 5.717,5.482 8.009,5.233 C8.16,5.217 8.315,5.267 8.429,5.369 C8.542,5.472 8.606,5.619 8.602,5.772 C8.564,8.037 8.647,10.313 8.851,12.537 L8.864,12.683 C8.868,12.728 8.899,12.764 8.942,12.776 C9.004,12.781 9.037,12.764 9.059,12.734 L9.142,12.615 C10.434,10.781 11.839,8.997 13.319,7.311 C13.482,7.123 13.526,7.005 13.558,6.834 C14.022,3.87 13.304,1.679 12.662,1.124 C12.104,0.643 11.295,0.416 10.038,0.389" id="Fill-6" fill="#FFFFFF" mask="url(#mask-4)"></path>
            </g>
        </g>
    </g>
</svg>