<?xml version="1.0" encoding="UTF-8"?>
<svg version="1.1" xmlns="http://www.w3.org/2000/svg" xmlns:xlink="http://www.w3.org/1999/xlink" viewBox="0 0 16 12">
	<style>
		.monochrome-0 {
			fill:#000000
		}
		.monochrome-1 {
			fill:#000000
		}
		.multicolor-0:systemYellowColor {
			fill:#FFCC00
		}
		.multicolor-1:emerald {
			fill: #028A0F
		}
		.hierarchical-0:secondary {
			fill: #4D4D4D
		}
		.hierarchical-1:primary {
			fill: #212121
		}
		.SFSymbolsPreviewFFCC00 {
			fill: #FFCC00;
			opacity: 1.0
		}
		.SFSymbolsPreview028A0F {
			fill: #028A0F;
			opacity: 1.0;
		}
</style>
  <g id="Regular-S">
   <path class="monochrome-0 multicolor-0:systemYellowColor hierarchical-0:secondary SFSymbolsPreviewFFCC00" d="M10.08,7.03 C10.08,5.88 9.13,4.93 7.99,4.93 C6.84,4.93 5.89,5.88 5.89,7.03 C5.89,7.28 5.93,7.53 6.02,7.75 L9.95,7.75 C10.04,7.53 10.08,7.28 10.08,7.03 Z M5.48,5.03 C5.64,5.2 5.88,5.2 6.01,5.06 C6.15,4.92 6.15,4.69 5.98,4.53 L5.39,3.94 C5.23,3.77 5.01,3.78 4.87,3.91 C4.72,4.05 4.72,4.28 4.89,4.44 Z M9.96,5.06 C10.1,5.2 10.33,5.2 10.49,5.03 L11.08,4.44 C11.25,4.28 11.24,4.05 11.11,3.91 C10.97,3.77 10.74,3.77 10.58,3.94 L9.99,4.53 C9.82,4.69 9.82,4.92 9.96,5.06 Z M7.99,4.24 C8.18,4.24 8.34,4.08 8.34,3.85 L8.34,3.01 C8.34,2.78 8.18,2.62 7.99,2.62 C7.79,2.62 7.63,2.78 7.63,3.01 L7.63,3.85 C7.63,4.08 7.79,4.25 7.99,4.24 Z M3.97,7.29 L4.8,7.29 C5.03,7.29 5.2,7.13 5.2,6.93 C5.19,6.74 5.03,6.58 4.8,6.58 L3.97,6.58 C3.74,6.58 3.57,6.74 3.57,6.93 C3.57,7.13 3.74,7.29 3.97,7.29 Z M11.17,7.29 L12,7.29 C12.23,7.29 12.4,7.13 12.4,6.93 C12.4,6.74 12.23,6.58 12,6.58 L11.17,6.58 C10.94,6.58 10.77,6.74 10.77,6.93 C10.78,7.13 10.94,7.29 11.17,7.29 Z"/>
   <path class="monochrome-1 multicolor-1:emerald hierarchical-1:primary SFSymbolsPreview028A0F" d="M3.46,8.93 L12.51,8.93 C12.71,8.93 12.89,8.77 12.89,8.58 C12.89,8.39 12.71,8.23 12.51,8.23 L3.46,8.23 C3.26,8.23 3.08,8.39 3.08,8.58 C3.08,8.77 3.26,8.93 3.46,8.93 Z"/>
  </g>
</svg>

