<?xml version="1.0" encoding="UTF-8" standalone="no"?>
<!DOCTYPE svg PUBLIC "-//W3C//DTD SVG 1.1//EN" "http://www.w3.org/Graphics/SVG/1.1/DTD/svg11.dtd">
<svg width="100%" height="100%" viewBox="0 0 1059 321" version="1.1" xmlns="http://www.w3.org/2000/svg" xmlns:xlink="http://www.w3.org/1999/xlink" xml:space="preserve" xmlns:serif="http://www.serif.com/" style="fill-rule:evenodd;clip-rule:evenodd;stroke-linejoin:round;stroke-miterlimit:2;">
    <g transform="matrix(4.16667,0,0,4.16667,0,0)">
        <path d="M93.57,40.054L90.955,49.647L88.34,49.647L84.849,36.567L87.635,36.567L89.907,45.456L92.265,36.567L94.966,36.567L97.233,45.456L99.496,36.567L102.288,36.567L98.8,49.647L96.185,49.647L93.57,40.054Z" style="fill:rgb(99,100,102);fill-rule:nonzero;"/>
        <path d="M104.225,49.666L104.225,36.586L106.835,36.586L106.835,41.825L112.933,41.825L112.933,36.586L115.548,36.586L115.548,49.647L112.933,49.666L112.933,44.246L106.835,44.246L106.835,49.666L104.225,49.666Z" style="fill:rgb(99,100,102);fill-rule:nonzero;"/>
        <rect x="118.371" y="36.586" width="2.606" height="13.08" style="fill:rgb(99,100,102);fill-rule:nonzero;"/>
        <path d="M126.239,36.567L126.239,47.209L133.217,47.209L133.217,49.647L123.628,49.647L123.628,36.567L126.239,36.567Z" style="fill:rgb(99,100,102);fill-rule:nonzero;"/>
        <path d="M135.335,49.647L135.335,36.586L144.942,36.567L144.942,39.006L137.951,39.006L137.951,41.807L143.19,41.807L143.19,44.227L137.951,44.227L137.951,47.209L144.924,47.209L144.924,49.647L135.335,49.647Z" style="fill:rgb(99,100,102);fill-rule:nonzero;"/>
        <path d="M13.549,9.233L13.549,64.335L49.682,64.335L49.682,76.982L0,76.982L0,9.233L13.549,9.233Z" style="fill:rgb(157,159,162);fill-rule:nonzero;"/>
        <path d="M111.587,18.971C105.11,12.485 97.057,9.251 87.423,9.251C77.784,9.251 69.731,12.485 63.259,18.971C56.782,25.439 53.548,33.496 53.548,43.126C53.548,52.737 56.782,60.776 63.259,67.262C69.731,73.766 77.784,77 87.423,77L87.468,64.354C81.416,64.354 76.506,62.331 72.744,58.265C68.977,54.2 67.098,49.16 67.098,43.126C67.098,37.109 68.977,32.069 72.744,28.004C76.506,23.939 81.384,21.898 87.378,21.898C93.43,21.898 98.335,23.939 102.102,28.004C103.444,29.449 104.514,31.039 105.376,32.737L119.699,32.737C118.204,27.552 115.562,22.927 111.587,18.971Z" style="fill:rgb(157,159,162);fill-rule:nonzero;"/>
        <path d="M165.718,18.971C159.233,12.485 151.184,9.251 141.545,9.251L141.509,21.898C147.562,21.898 152.458,23.939 156.234,28.004C159.992,32.069 161.871,37.109 161.871,43.126C161.871,49.16 159.992,54.2 156.234,58.265C152.458,62.331 147.58,64.354 141.6,64.354C135.542,64.354 130.632,62.331 126.871,58.265C125.521,56.801 124.45,55.212 123.583,53.496L109.279,53.496C110.77,58.663 113.417,63.288 117.386,67.262C123.859,73.766 131.912,77 141.545,77C151.184,77 159.233,73.766 165.718,67.298C172.186,60.813 175.42,52.773 175.42,43.126C175.42,33.496 172.186,25.439 165.718,18.971Z" style="fill:rgb(157,159,162);fill-rule:nonzero;"/>
        <path d="M198.671,36.333L217.641,36.333C223.097,36.242 225.898,33.767 226.042,28.889C225.898,24.427 223.133,22.114 217.786,21.934L198.671,21.934L198.671,36.333ZM185.122,76.982L185.122,9.233L214.661,9.233C230.468,9.233 238.381,15.737 238.381,28.745C238.381,42.241 230.486,48.979 214.714,48.979L198.671,48.979L198.671,76.982L185.122,76.982Z" style="fill:rgb(157,159,162);fill-rule:nonzero;"/>
        <path d="M253.81,7.191C253.81,11.121 250.613,14.301 246.683,14.301C242.753,14.301 239.556,11.121 239.556,7.191C239.556,3.253 242.753,0.055 246.683,0.055C250.613,0.055 253.81,3.253 253.81,7.191Z" style="fill:rgb(99,100,102);fill-rule:nonzero;"/>
        <path d="M243.115,5.638L243.115,8.158L244.759,8.158L244.759,8.727L242.492,8.727L242.492,5.638L243.115,5.638Z" style="fill:white;fill-rule:nonzero;"/>
        <path d="M247.785,5.638L247.785,6.225L246.755,6.225L246.755,8.727L246.132,8.727L246.132,6.225L245.102,6.225L245.102,5.638L247.785,5.638Z" style="fill:white;fill-rule:nonzero;"/>
        <path d="M249.438,8.113C249.98,8.113 250.251,7.797 250.251,7.183C250.251,6.559 249.98,6.252 249.438,6.252L248.86,6.252L248.86,8.113L249.438,8.113ZM248.246,8.718L248.246,5.638L249.438,5.638C250.396,5.638 250.875,6.153 250.875,7.183C250.875,8.203 250.396,8.718 249.438,8.718L248.246,8.718Z" style="fill:white;fill-rule:nonzero;"/>
    </g>
</svg>
