<?xml version="1.0" encoding="UTF-8"?>
<svg height="600" width="800" xmlns="http://www.w3.org/2000/svg" xmlns:xlink="http://www.w3.org/1999/xlink">
    <g id="Notes" font-family="'LucidaGrande', 'Lucida Grande', sans-serif" font-size="13">
        <rect fill="white" height="600.0" width="800.0" x="0.0" y="0.0" />
        <g font-size="13">
            <text x="18.0" y="176.0">Small</text>
            <text x="18.0" y="376.0">Medium</text>
            <text x="18.0" y="576.0">Large</text>
        </g>
        <g font-size="9">
            <text x="250.0" y="30.0">Ultralight</text>
            <text x="450.0" y="30.0">Regular</text>
            <text x="650.0" y="30.0">Black</text>
            <text id="template-version" fill="#505050" text-anchor="end" x="790.0" y="575.0">Template v.3.0</text>
            <a href="https://github.com/swhitty/SwiftDraw">
                <text fill="#505050" text-anchor="end" x="790.0" y="590.0">https://github.com/swhitty/SwiftDraw</text>
            </a>
        </g>
    </g>
    <g id="Guides" stroke="rgb(39, 170, 225)" stroke-width="0.5">
        <path id="Capline-S" d="M18,76 l800,0" />
        <path id="H-reference" d="M85,145.755 L87.685,145.755 L113.369,79.287 L114.052,79.287 L114.052,76 L112.148,76 L85,145.755 Z M95.693,121.536 L130.996,121.536 L130.263,119.313 L96.474,119.313 L95.693,121.536 Z M139.15,145.755 L141.787,145.755 L114.638,76 L113.466,76 L113.466,79.287 L139.15,145.755 Z" stroke="none" />
        <path id="Baseline-S" d="M18,146 l800,0" />
        <path id="left-margin-Ultralight-S" d="M218.012,56 l0,110" />
        <path id="right-margin-Ultralight-S" d="M311.988,56 l0,110" />
        <path id="left-margin-Regular-S" d="M418.012,56 l0,110" />
        <path id="right-margin-Regular-S" d="M511.988,56 l0,110" />
        <path id="left-margin-Black-S" d="M618.012,56 l0,110" />
        <path id="right-margin-Black-S" d="M711.988,56 l0,110" />
        <path id="Capline-M" d="M18,276 l800,0" />
        <path id="Baseline-M" d="M18,346 l800,0" />
        <path id="Capline-L" d="M18,476 l800,0" />
        <path id="Baseline-L" d="M18,546 l800,0" />
    </g>
    <g id="Symbols">
        <g id="Ultralight-S">
            <path d="M238.712,135.3 C233.442,130.03 233.442,121.486 238.712,116.216 C243.982,110.946 252.526,110.946 257.796,116.216 C263.066,121.486 263.066,130.03 257.796,135.3 C252.526,140.57 243.982,140.57 238.712,135.3 Z M233.941,140.071 C241.846,147.976 254.662,147.976 262.567,140.071 C270.472,132.167 270.472,119.35 262.567,111.445 C254.662,103.54 241.846,103.54 233.941,111.445 C226.036,119.35 226.036,132.167 233.941,140.071 Z" />
            <path d="M262.567,116.216 L297.024,81.759 C298.341,80.442 298.341,78.306 297.024,76.988 C295.706,75.671 293.57,75.671 292.253,76.988 L257.796,111.445 C256.478,112.763 256.478,114.899 257.796,116.216 C259.113,117.534 261.249,117.534 262.567,116.216 Z" />
            <path d="M285.627,88.385 L296.229,98.988 L296.229,94.217 L284.301,106.144 L289.072,106.144 L278.47,95.542 L278.47,100.313 L290.398,88.385 L285.627,88.385 Z M290.398,83.614 C289.08,82.297 286.944,82.297 285.627,83.615 L273.699,95.542 C272.382,96.859 272.382,98.996 273.699,100.313 L284.301,110.915 C285.619,112.233 287.755,112.233 289.072,110.915 L301,98.988 C302.317,97.67 302.317,95.534 301,94.217 L290.398,83.614 Z" />
        </g>
        <g id="Regular-S">
            <path d="M438.712,135.3 C433.442,130.03 433.442,121.486 438.712,116.216 C443.982,110.946 452.526,110.946 457.796,116.216 C463.066,121.486 463.066,130.03 457.796,135.3 C452.526,140.57 443.982,140.57 438.712,135.3 Z M433.941,140.071 C441.846,147.976 454.662,147.976 462.567,140.071 C470.472,132.167 470.472,119.35 462.567,111.445 C454.662,103.54 441.846,103.54 433.941,111.445 C426.036,119.35 426.036,132.167 433.941,140.071 Z" />
            <path d="M462.567,116.216 L497.024,81.759 C498.341,80.442 498.341,78.306 497.024,76.988 C495.707,75.671 493.57,75.671 492.253,76.988 L457.796,111.445 C456.478,112.763 456.478,114.899 457.796,116.216 C459.113,117.534 461.249,117.534 462.567,116.216 Z" />
            <path d="M485.627,88.385 L496.229,98.988 L496.229,94.217 L484.301,106.144 L489.072,106.144 L478.47,95.542 L478.47,100.313 L490.398,88.385 L485.627,88.385 Z M490.398,83.614 C489.08,82.297 486.944,82.297 485.627,83.615 L473.699,95.542 C472.382,96.859 472.382,98.996 473.699,100.313 L484.301,110.915 C485.619,112.233 487.755,112.233 489.072,110.915 L501,98.988 C502.317,97.67 502.317,95.534 501,94.217 L490.398,83.614 Z" />
        </g>
        <g id="Black-S">
            <path d="M638.712,135.3 C633.442,130.03 633.442,121.486 638.712,116.216 C643.982,110.946 652.526,110.946 657.796,116.216 C663.066,121.486 663.066,130.03 657.796,135.3 C652.526,140.57 643.982,140.57 638.712,135.3 Z M633.941,140.071 C641.846,147.976 654.662,147.976 662.567,140.071 C670.472,132.167 670.472,119.35 662.567,111.445 C654.662,103.54 641.846,103.54 633.941,111.445 C626.036,119.35 626.036,132.167 633.941,140.071 Z" />
            <path d="M662.567,116.216 L697.024,81.759 C698.341,80.442 698.341,78.306 697.024,76.988 C695.707,75.671 693.57,75.671 692.253,76.988 L657.796,111.445 C656.478,112.763 656.478,114.899 657.796,116.216 C659.113,117.534 661.249,117.534 662.567,116.216 Z" />
            <path d="M685.627,88.385 L696.229,98.988 L696.229,94.217 L684.301,106.144 L689.072,106.144 L678.47,95.542 L678.47,100.313 L690.398,88.385 L685.627,88.385 Z M690.398,83.614 C689.08,82.297 686.944,82.297 685.627,83.615 L673.699,95.542 C672.382,96.859 672.382,98.996 673.699,100.313 L684.301,110.915 C685.619,112.233 687.755,112.233 689.072,110.915 L701,98.988 C702.317,97.67 702.317,95.534 701,94.217 L690.398,83.614 Z" />
        </g>
    </g>
</svg>