<?xml version="1.0" encoding="UTF-8"?>
<svg height="600" width="800" xmlns="http://www.w3.org/2000/svg" xmlns:xlink="http://www.w3.org/1999/xlink">
    <g id="Notes" font-family="'LucidaGrande', 'Lucida Grande', sans-serif" font-size="13">
        <rect fill="white" height="600.0" width="800.0" x="0.0" y="0.0" />
        <g font-size="13">
            <text x="18.0" y="176.0">Small</text>
            <text x="18.0" y="376.0">Medium</text>
            <text x="18.0" y="576.0">Large</text>
        </g>
        <g font-size="9">
            <text x="250.0" y="30.0">Ultralight</text>
            <text x="450.0" y="30.0">Regular</text>
            <text x="650.0" y="30.0">Black</text>
            <text id="template-version" fill="#505050" text-anchor="end" x="785.0" y="575.0">Template v.3.0</text>
            <a href="https://github.com/swhitty/SwiftDraw">
                <text fill="#505050" text-anchor="end" x="785.0" y="590.0">https://github.com/swhitty/SwiftDraw</text>
            </a>
        </g>
    </g>
    <g id="Guides" stroke="rgb(39, 170, 225)" stroke-width="0.5">
        <path id="Capline-S" d="M18,76 l800,0" />
        <path id="H-reference" d="M85,145.755 L87.685,145.755 L113.369,79.287 L114.052,79.287 L114.052,76 L112.148,76 L85,145.755 Z M95.693,121.536 L130.996,121.536 L130.263,119.313 L96.474,119.313 L95.693,121.536 Z M139.15,145.755 L141.787,145.755 L114.638,76 L113.466,76 L113.466,79.287 L139.15,145.755 Z" stroke="none" />
        <path id="Baseline-S" d="M18,146 l800,0" />
        <path id="left-margin-Ultralight-S" d="M217.946,56 l0,110" />
        <path id="right-margin-Ultralight-S" d="M312.054,56 l0,110" />
        <path id="left-margin-Regular-S" d="M418.012,56 l0,110" />
        <path id="right-margin-Regular-S" d="M511.988,56 l0,110" />
        <path id="left-margin-Black-S" d="M618.074,56 l0,110" />
        <path id="right-margin-Black-S" d="M711.926,56 l0,110" />
        <path id="Capline-M" d="M18,276 l800,0" />
        <path id="Baseline-M" d="M18,346 l800,0" />
        <path id="Capline-L" d="M18,476 l800,0" />
        <path id="Baseline-L" d="M18,546 l800,0" />
    </g>
    <g id="Symbols">
        <g id="Ultralight-S">
            <path d="M237.018,136.929 C231.119,131.03 231.119,121.467 237.018,115.568 C242.916,109.669 252.48,109.669 258.378,115.568 C264.277,121.467 264.277,131.03 258.378,136.929 C252.48,142.827 242.916,142.827 237.018,136.929 Z M233.731,140.215 C241.445,147.928 253.951,147.928 261.664,140.215 C269.378,132.501 269.378,119.995 261.664,112.282 C253.951,104.568 241.445,104.568 233.731,112.282 C226.018,119.995 226.018,132.501 233.731,140.215 Z" />
            <path d="M261.664,115.568 L297.266,79.967 C298.173,79.059 298.173,77.588 297.266,76.681 C296.358,75.773 294.887,75.773 293.979,76.681 L258.378,112.282 C257.471,113.189 257.471,114.66 258.378,115.568 C259.286,116.475 260.757,116.475 261.664,115.568 Z" />
            <path d="M287.133,86.813 L298.087,97.767 L298.087,94.481 L285.764,106.805 L289.05,106.805 L278.096,95.85 L278.096,99.137 L290.419,86.813 L287.133,86.813 Z M290.419,83.527 C289.512,82.619 288.04,82.619 287.133,83.527 L274.809,95.85 C273.902,96.758 273.902,98.229 274.809,99.137 L285.764,110.091 C286.671,110.998 288.142,110.998 289.05,110.091 L301.373,97.767 C302.281,96.86 302.281,95.389 301.373,94.481 L290.419,83.527 Z" />
        </g>
        <g id="Regular-S">
            <path d="M438.712,135.3 C433.442,130.03 433.442,121.486 438.712,116.216 C443.982,110.946 452.526,110.946 457.796,116.216 C463.066,121.486 463.066,130.03 457.796,135.3 C452.526,140.57 443.982,140.57 438.712,135.3 Z M433.941,140.071 C441.846,147.976 454.662,147.976 462.567,140.071 C470.472,132.167 470.472,119.35 462.567,111.445 C454.662,103.54 441.846,103.54 433.941,111.445 C426.036,119.35 426.036,132.167 433.941,140.071 Z" />
            <path d="M462.567,116.216 L497.024,81.759 C498.341,80.442 498.341,78.306 497.024,76.988 C495.707,75.671 493.57,75.671 492.253,76.988 L457.796,111.445 C456.478,112.763 456.478,114.899 457.796,116.216 C459.113,117.534 461.249,117.534 462.567,116.216 Z" />
            <path d="M485.627,88.385 L496.229,98.988 L496.229,94.217 L484.301,106.144 L489.072,106.144 L478.47,95.542 L478.47,100.313 L490.398,88.385 L485.627,88.385 Z M490.398,83.614 C489.08,82.297 486.944,82.297 485.627,83.615 L473.699,95.542 C472.382,96.859 472.382,98.996 473.699,100.313 L484.301,110.915 C485.619,112.233 487.755,112.233 489.072,110.915 L501,98.988 C502.317,97.67 502.317,95.534 501,94.217 L490.398,83.614 Z" />
        </g>
        <g id="Black-S">
            <path d="M640.3,133.773 C635.62,129.093 635.62,121.505 640.3,116.824 C644.981,112.144 652.569,112.144 657.25,116.824 C661.93,121.505 661.93,129.093 657.25,133.773 C652.569,138.454 644.981,138.454 640.3,133.773 Z M634.137,139.937 C642.221,148.021 655.329,148.021 663.413,139.937 C671.497,131.853 671.497,118.745 663.413,110.661 C655.329,102.577 642.221,102.577 634.137,110.661 C626.053,118.745 626.053,131.853 634.137,139.937 Z" />
            <path d="M663.413,116.824 L696.797,83.44 C698.499,81.738 698.499,78.978 696.797,77.276 C695.096,75.575 692.336,75.575 690.634,77.276 L657.25,110.661 C655.548,112.363 655.548,115.122 657.25,116.824 C658.952,118.526 661.711,118.526 663.413,116.824 Z" />
            <path d="M684.214,89.86 L694.486,100.132 L694.486,93.969 L682.93,105.525 L689.093,105.525 L678.821,95.253 L678.821,101.416 L690.377,89.86 L684.214,89.86 Z M690.377,83.697 C688.675,81.995 685.916,81.995 684.214,83.697 L672.658,95.253 C670.956,96.955 670.956,99.714 672.658,101.416 L682.93,111.688 C684.632,113.39 687.391,113.39 689.093,111.688 L700.65,100.132 C702.352,98.43 702.352,95.671 700.65,93.969 L690.377,83.697 Z" />
        </g>
    </g>
</svg>